solid OpenSCAD_Model
  facet normal 0.6788 0.734323 -0
    outer loop
      vertex 7.45998 7.45998 0
      vertex 6.85168 8.02228 22
      vertex 7.45998 7.45998 22
    endloop
  endfacet
  facet normal 0.6788 0.734323 0
    outer loop
      vertex 6.85168 8.02228 22
      vertex 7.45998 7.45998 0
      vertex 6.85168 8.02228 0
    endloop
  endfacet
  facet normal -0.908144 0.418659 0
    outer loop
      vertex -9.74693 4.03731 0
      vertex -9.40012 4.7896 22
      vertex -9.40012 4.7896 0
    endloop
  endfacet
  facet normal -0.908144 0.418659 0
    outer loop
      vertex -9.40012 4.7896 22
      vertex -9.74693 4.03731 0
      vertex -9.74693 4.03731 22
    endloop
  endfacet
  facet normal 0.980785 0.195091 0
    outer loop
      vertex 10.4201 1.65038 22
      vertex 10.2585 2.46285 0
      vertex 10.2585 2.46285 22
    endloop
  endfacet
  facet normal 0.980785 0.195091 0
    outer loop
      vertex 10.2585 2.46285 0
      vertex 10.4201 1.65038 22
      vertex 10.4201 1.65038 0
    endloop
  endfacet
  facet normal 0.962455 0.27144 0
    outer loop
      vertex 10.2585 2.46285 22
      vertex 10.0336 3.26013 0
      vertex 10.0336 3.26013 22
    endloop
  endfacet
  facet normal 0.962455 0.27144 0
    outer loop
      vertex 10.0336 3.26013 0
      vertex 10.2585 2.46285 22
      vertex 10.2585 2.46285 0
    endloop
  endfacet
  facet normal 0.785317 0.619094 0
    outer loop
      vertex 8.53513 6.20113 22
      vertex 8.02228 6.85168 0
      vertex 8.02228 6.85168 22
    endloop
  endfacet
  facet normal 0.785317 0.619094 0
    outer loop
      vertex 8.02228 6.85168 0
      vertex 8.53513 6.20113 22
      vertex 8.53513 6.20113 0
    endloop
  endfacet
  facet normal 0.872496 0.488621 0
    outer loop
      vertex 9.40012 4.7896 22
      vertex 8.99535 5.51236 0
      vertex 8.99535 5.51236 22
    endloop
  endfacet
  facet normal 0.872496 0.488621 0
    outer loop
      vertex 8.99535 5.51236 0
      vertex 9.40012 4.7896 22
      vertex 9.40012 4.7896 0
    endloop
  endfacet
  facet normal 0.831469 0.555571 0
    outer loop
      vertex 8.99535 5.51236 22
      vertex 8.53513 6.20113 0
      vertex 8.53513 6.20113 22
    endloop
  endfacet
  facet normal 0.831469 0.555571 0
    outer loop
      vertex 8.53513 6.20113 0
      vertex 8.99535 5.51236 22
      vertex 8.99535 5.51236 0
    endloop
  endfacet
  facet normal 0.734323 0.6788 0
    outer loop
      vertex 8.02228 6.85168 22
      vertex 7.45998 7.45998 0
      vertex 7.45998 7.45998 22
    endloop
  endfacet
  facet normal 0.734323 0.6788 0
    outer loop
      vertex 7.45998 7.45998 0
      vertex 8.02228 6.85168 22
      vertex 8.02228 6.85168 0
    endloop
  endfacet
  facet normal -0.999229 0.0392599 0
    outer loop
      vertex -10.55 0 0
      vertex -10.5175 0.827743 22
      vertex -10.5175 0.827743 0
    endloop
  endfacet
  facet normal -0.999229 0.0392599 0
    outer loop
      vertex -10.5175 0.827743 22
      vertex -10.55 0 0
      vertex -10.55 0 22
    endloop
  endfacet
  facet normal -0.938191 0.346117 0
    outer loop
      vertex -10.0336 3.26013 0
      vertex -9.74693 4.03731 22
      vertex -9.74693 4.03731 0
    endloop
  endfacet
  facet normal -0.938191 0.346117 0
    outer loop
      vertex -9.74693 4.03731 22
      vertex -10.0336 3.26013 0
      vertex -10.0336 3.26013 22
    endloop
  endfacet
  facet normal -0.962455 0.27144 0
    outer loop
      vertex -10.2585 2.46285 0
      vertex -10.0336 3.26013 22
      vertex -10.0336 3.26013 0
    endloop
  endfacet
  facet normal -0.962455 0.27144 0
    outer loop
      vertex -10.0336 3.26013 22
      vertex -10.2585 2.46285 0
      vertex -10.2585 2.46285 22
    endloop
  endfacet
  facet normal -0.993069 0.117537 0
    outer loop
      vertex -10.5175 0.827743 0
      vertex -10.4201 1.65038 22
      vertex -10.4201 1.65038 0
    endloop
  endfacet
  facet normal -0.993069 0.117537 0
    outer loop
      vertex -10.4201 1.65038 22
      vertex -10.5175 0.827743 0
      vertex -10.5175 0.827743 22
    endloop
  endfacet
  facet normal -0.734323 0.6788 0
    outer loop
      vertex -8.02228 6.85168 0
      vertex -7.45998 7.45998 22
      vertex -7.45998 7.45998 0
    endloop
  endfacet
  facet normal -0.734323 0.6788 0
    outer loop
      vertex -7.45998 7.45998 22
      vertex -8.02228 6.85168 0
      vertex -8.02228 6.85168 22
    endloop
  endfacet
  facet normal -0.872496 0.488621 0
    outer loop
      vertex -9.40012 4.7896 0
      vertex -8.99535 5.51236 22
      vertex -8.99535 5.51236 0
    endloop
  endfacet
  facet normal -0.872496 0.488621 0
    outer loop
      vertex -8.99535 5.51236 22
      vertex -9.40012 4.7896 0
      vertex -9.40012 4.7896 22
    endloop
  endfacet
  facet normal -0.785317 0.619094 0
    outer loop
      vertex -8.53513 6.20113 0
      vertex -8.02228 6.85168 22
      vertex -8.02228 6.85168 0
    endloop
  endfacet
  facet normal -0.785317 0.619094 0
    outer loop
      vertex -8.02228 6.85168 22
      vertex -8.53513 6.20113 0
      vertex -8.53513 6.20113 22
    endloop
  endfacet
  facet normal -0.6788 0.734323 0
    outer loop
      vertex -6.85168 8.02228 0
      vertex -7.45998 7.45998 22
      vertex -6.85168 8.02228 22
    endloop
  endfacet
  facet normal -0.6788 0.734323 0
    outer loop
      vertex -7.45998 7.45998 22
      vertex -6.85168 8.02228 0
      vertex -7.45998 7.45998 0
    endloop
  endfacet
  facet normal -0.619091 0.785319 0
    outer loop
      vertex -6.81652 8.05 0
      vertex -6.85168 8.02228 22
      vertex -6.81652 8.05 22
    endloop
  endfacet
  facet normal -0.619091 0.785319 0
    outer loop
      vertex -6.85168 8.02228 22
      vertex -6.81652 8.05 0
      vertex -6.85168 8.02228 0
    endloop
  endfacet
  facet normal 0.999229 0.0392599 0
    outer loop
      vertex 10.55 0 22
      vertex 10.5175 0.827743 0
      vertex 10.5175 0.827743 22
    endloop
  endfacet
  facet normal 0.999229 0.0392599 0
    outer loop
      vertex 10.5175 0.827743 0
      vertex 10.55 0 22
      vertex 10.55 0 0
    endloop
  endfacet
  facet normal 0 0 -1
    outer loop
      vertex 7.1726 -3.65462 0
      vertex 11 0 0
      vertex 11 -18.05 0
    endloop
  endfacet
  facet normal 0 -0 -1
    outer loop
      vertex 7.43723 -3.0806 0
      vertex 11 0 0
      vertex 7.1726 -3.65462 0
    endloop
  endfacet
  facet normal -0 0 -1
    outer loop
      vertex 11 0 0
      vertex 7.656 -2.48759 0
      vertex 10.55 0 0
    endloop
  endfacet
  facet normal 0 -0 -1
    outer loop
      vertex 7.82758 -1.87923 0
      vertex 10.55 0 0
      vertex 7.656 -2.48759 0
    endloop
  endfacet
  facet normal 0 -0 -1
    outer loop
      vertex 8.02518 -0.631596 0
      vertex 10.55 0 0
      vertex 7.95089 -1.2593 0
    endloop
  endfacet
  facet normal 0 0 -1
    outer loop
      vertex 10.55 0 0
      vertex 8.05 0 0
      vertex 10.5175 0.827743 0
    endloop
  endfacet
  facet normal -0 0 -1
    outer loop
      vertex 10.5175 0.827743 0
      vertex 8.02518 0.631596 0
      vertex 10.4201 1.65038 0
    endloop
  endfacet
  facet normal 0 0 -1
    outer loop
      vertex 7.95089 1.2593 0
      vertex 10.4201 1.65038 0
      vertex 8.02518 0.631596 0
    endloop
  endfacet
  facet normal 0 0 -1
    outer loop
      vertex 7.82758 1.87923 0
      vertex 10.2585 2.46285 0
      vertex 7.95089 1.2593 0
    endloop
  endfacet
  facet normal 0 0 -1
    outer loop
      vertex 7.656 2.48759 0
      vertex 10.0336 3.26013 0
      vertex 7.82758 1.87923 0
    endloop
  endfacet
  facet normal -0 0 -1
    outer loop
      vertex 10.2585 2.46285 0
      vertex 7.82758 1.87923 0
      vertex 10.0336 3.26013 0
    endloop
  endfacet
  facet normal -0 0 -1
    outer loop
      vertex 10.4201 1.65038 0
      vertex 7.95089 1.2593 0
      vertex 10.2585 2.46285 0
    endloop
  endfacet
  facet normal 0 0 -1
    outer loop
      vertex 8.02518 0.631596 0
      vertex 10.5175 0.827743 0
      vertex 8.05 0 0
    endloop
  endfacet
  facet normal 0 -0 -1
    outer loop
      vertex 8.05 0 0
      vertex 10.55 0 0
      vertex 8.02518 -0.631596 0
    endloop
  endfacet
  facet normal 0 -0 -1
    outer loop
      vertex 7.95089 -1.2593 0
      vertex 10.55 0 0
      vertex 7.82758 -1.87923 0
    endloop
  endfacet
  facet normal 0 -0 -1
    outer loop
      vertex 7.656 -2.48759 0
      vertex 11 0 0
      vertex 7.43723 -3.0806 0
    endloop
  endfacet
  facet normal 0 0 -1
    outer loop
      vertex 11 -18.05 0
      vertex 6.86375 -4.20611 0
      vertex 7.1726 -3.65462 0
    endloop
  endfacet
  facet normal 0 0 -1
    outer loop
      vertex 11 -18.05 0
      vertex 6.51259 -4.73167 0
      vertex 6.86375 -4.20611 0
    endloop
  endfacet
  facet normal 0 0 -1
    outer loop
      vertex 6.5 -4.74764 0
      vertex 11 -18.05 0
      vertex 6.5 -18.05 0
    endloop
  endfacet
  facet normal 0 0 -1
    outer loop
      vertex 11 -18.05 0
      vertex 6.5 -4.74764 0
      vertex 6.51259 -4.73167 0
    endloop
  endfacet
  facet normal -0 0 -1
    outer loop
      vertex 10.0336 3.26013 0
      vertex 7.656 2.48759 0
      vertex 9.74693 4.03731 0
    endloop
  endfacet
  facet normal 0 0 -1
    outer loop
      vertex 7.43723 3.0806 0
      vertex 9.74693 4.03731 0
      vertex 7.656 2.48759 0
    endloop
  endfacet
  facet normal -0 0 -1
    outer loop
      vertex 9.74693 4.03731 0
      vertex 7.43723 3.0806 0
      vertex 9.40012 4.7896 0
    endloop
  endfacet
  facet normal 0 0 -1
    outer loop
      vertex 7.1726 3.65462 0
      vertex 9.40012 4.7896 0
      vertex 7.43723 3.0806 0
    endloop
  endfacet
  facet normal -0 0 -1
    outer loop
      vertex 9.40012 4.7896 0
      vertex 7.1726 3.65462 0
      vertex 8.99535 5.51236 0
    endloop
  endfacet
  facet normal 0 0 -1
    outer loop
      vertex 6.86375 4.20611 0
      vertex 8.99535 5.51236 0
      vertex 7.1726 3.65462 0
    endloop
  endfacet
  facet normal -0 0 -1
    outer loop
      vertex 8.99535 5.51236 0
      vertex 6.86375 4.20611 0
      vertex 8.53513 6.20113 0
    endloop
  endfacet
  facet normal 0 0 -1
    outer loop
      vertex 6.51259 4.73167 0
      vertex 8.53513 6.20113 0
      vertex 6.86375 4.20611 0
    endloop
  endfacet
  facet normal -0 0 -1
    outer loop
      vertex 8.53513 6.20113 0
      vertex 6.51259 4.73167 0
      vertex 8.02228 6.85168 0
    endloop
  endfacet
  facet normal 0 0 -1
    outer loop
      vertex 6.12127 5.22806 0
      vertex 8.02228 6.85168 0
      vertex 6.51259 4.73167 0
    endloop
  endfacet
  facet normal -0 0 -1
    outer loop
      vertex 8.02228 6.85168 0
      vertex 6.12127 5.22806 0
      vertex 7.45998 7.45998 0
    endloop
  endfacet
  facet normal 0 0 -1
    outer loop
      vertex 5.69221 5.69221 0
      vertex 7.45998 7.45998 0
      vertex 6.12127 5.22806 0
    endloop
  endfacet
  facet normal 0 0 -1
    outer loop
      vertex 6.81652 8.05 0
      vertex 52.5 13.05 0
      vertex 52.5 8.05 0
    endloop
  endfacet
  facet normal -0 0 -1
    outer loop
      vertex 7.45998 7.45998 0
      vertex 5.69221 5.69221 0
      vertex 6.85168 8.02228 0
    endloop
  endfacet
  facet normal 0 0 -1
    outer loop
      vertex 5.22806 6.12127 0
      vertex 6.85168 8.02228 0
      vertex 5.69221 5.69221 0
    endloop
  endfacet
  facet normal -0 0 -1
    outer loop
      vertex 6.85168 8.02228 0
      vertex 5.22806 6.12127 0
      vertex 6.81652 8.05 0
    endloop
  endfacet
  facet normal 0 0 -1
    outer loop
      vertex 4.73167 6.51259 0
      vertex 6.81652 8.05 0
      vertex 5.22806 6.12127 0
    endloop
  endfacet
  facet normal 0 0 -1
    outer loop
      vertex 4.20611 6.86375 0
      vertex 6.81652 8.05 0
      vertex 4.73167 6.51259 0
    endloop
  endfacet
  facet normal 0 0 -1
    outer loop
      vertex 3.65462 7.1726 0
      vertex 6.81652 8.05 0
      vertex 4.20611 6.86375 0
    endloop
  endfacet
  facet normal 0 0 -1
    outer loop
      vertex 3.0806 7.43723 0
      vertex 6.81652 8.05 0
      vertex 3.65462 7.1726 0
    endloop
  endfacet
  facet normal 0 0 -1
    outer loop
      vertex 2.48759 7.656 0
      vertex 6.81652 8.05 0
      vertex 3.0806 7.43723 0
    endloop
  endfacet
  facet normal 0 0 -1
    outer loop
      vertex 1.87923 7.82758 0
      vertex 6.81652 8.05 0
      vertex 2.48759 7.656 0
    endloop
  endfacet
  facet normal 0 0 -1
    outer loop
      vertex 1.2593 7.95089 0
      vertex 6.81652 8.05 0
      vertex 1.87923 7.82758 0
    endloop
  endfacet
  facet normal 0 0 -1
    outer loop
      vertex 0.631596 8.02518 0
      vertex 6.81652 8.05 0
      vertex 1.2593 7.95089 0
    endloop
  endfacet
  facet normal 0 0 -1
    outer loop
      vertex 0 8.05 0
      vertex 6.81652 8.05 0
      vertex 0.631596 8.02518 0
    endloop
  endfacet
  facet normal 0 0 -1
    outer loop
      vertex 6.81652 8.05 0
      vertex 0 8.05 0
      vertex 52.5 13.05 0
    endloop
  endfacet
  facet normal 0 0 -1
    outer loop
      vertex -6.81652 8.05 0
      vertex 0 8.05 0
      vertex -0.631596 8.02518 0
    endloop
  endfacet
  facet normal 0 0 -1
    outer loop
      vertex -8.02228 6.85168 0
      vertex -6.12127 5.22806 0
      vertex -6.51259 4.73167 0
    endloop
  endfacet
  facet normal 0 0 -1
    outer loop
      vertex -6.85168 8.02228 0
      vertex -5.69221 5.69221 0
      vertex -6.12127 5.22806 0
    endloop
  endfacet
  facet normal 0 0 -1
    outer loop
      vertex -6.85168 8.02228 0
      vertex -5.22806 6.12127 0
      vertex -5.69221 5.69221 0
    endloop
  endfacet
  facet normal 0 0 -1
    outer loop
      vertex -6.81652 8.05 0
      vertex -4.73167 6.51259 0
      vertex -5.22806 6.12127 0
    endloop
  endfacet
  facet normal 0 0 -1
    outer loop
      vertex -6.81652 8.05 0
      vertex -4.20611 6.86375 0
      vertex -4.73167 6.51259 0
    endloop
  endfacet
  facet normal 0 0 -1
    outer loop
      vertex -6.81652 8.05 0
      vertex -3.65462 7.1726 0
      vertex -4.20611 6.86375 0
    endloop
  endfacet
  facet normal 0 0 -1
    outer loop
      vertex -6.81652 8.05 0
      vertex -3.0806 7.43723 0
      vertex -3.65462 7.1726 0
    endloop
  endfacet
  facet normal 0 0 -1
    outer loop
      vertex -6.81652 8.05 0
      vertex -2.48759 7.656 0
      vertex -3.0806 7.43723 0
    endloop
  endfacet
  facet normal 0 0 -1
    outer loop
      vertex -6.81652 8.05 0
      vertex -1.87923 7.82758 0
      vertex -2.48759 7.656 0
    endloop
  endfacet
  facet normal 0 0 -1
    outer loop
      vertex -6.81652 8.05 0
      vertex -1.2593 7.95089 0
      vertex -1.87923 7.82758 0
    endloop
  endfacet
  facet normal 0 0 -1
    outer loop
      vertex -6.81652 8.05 0
      vertex -0.631596 8.02518 0
      vertex -1.2593 7.95089 0
    endloop
  endfacet
  facet normal 0 0 -1
    outer loop
      vertex 0 8.05 0
      vertex -6.81652 8.05 0
      vertex -52.5 13.05 0
    endloop
  endfacet
  facet normal 0 0 -1
    outer loop
      vertex -52.5 13.05 0
      vertex -6.81652 8.05 0
      vertex -52.5 8.05 0
    endloop
  endfacet
  facet normal 0 0 -1
    outer loop
      vertex 0 8.05 0
      vertex -52.5 13.05 0
      vertex 52.5 13.05 0
    endloop
  endfacet
  facet normal 0 0 -1
    outer loop
      vertex -11 -18.05 0
      vertex -6.5 -4.74764 0
      vertex -6.5 -18.05 0
    endloop
  endfacet
  facet normal -0 0 -1
    outer loop
      vertex -6.5 -4.74764 0
      vertex -11 -18.05 0
      vertex -6.51259 -4.73167 0
    endloop
  endfacet
  facet normal -0 0 -1
    outer loop
      vertex -6.51259 -4.73167 0
      vertex -11 -18.05 0
      vertex -6.86375 -4.20611 0
    endloop
  endfacet
  facet normal -0 0 -1
    outer loop
      vertex -6.86375 -4.20611 0
      vertex -11 -18.05 0
      vertex -7.1726 -3.65462 0
    endloop
  endfacet
  facet normal 0 0 -1
    outer loop
      vertex -11 0 0
      vertex -7.1726 -3.65462 0
      vertex -11 -18.05 0
    endloop
  endfacet
  facet normal 0 0 -1
    outer loop
      vertex -7.1726 -3.65462 0
      vertex -11 0 0
      vertex -7.43723 -3.0806 0
    endloop
  endfacet
  facet normal 0 0 -1
    outer loop
      vertex -7.43723 -3.0806 0
      vertex -11 0 0
      vertex -7.656 -2.48759 0
    endloop
  endfacet
  facet normal -0 -0 -1
    outer loop
      vertex -10.55 0 0
      vertex -7.656 -2.48759 0
      vertex -11 0 0
    endloop
  endfacet
  facet normal 0 0 -1
    outer loop
      vertex -10.55 0 0
      vertex -8.05 0 0
      vertex -8.02518 -0.631596 0
    endloop
  endfacet
  facet normal 0 0 -1
    outer loop
      vertex -8.05 0 0
      vertex -8.99535 5.51236 0
      vertex -8.53513 6.20113 0
    endloop
  endfacet
  facet normal 0 0 -1
    outer loop
      vertex -7.656 -2.48759 0
      vertex -10.55 0 0
      vertex -7.82758 -1.87923 0
    endloop
  endfacet
  facet normal 0 0 -1
    outer loop
      vertex -8.05 0 0
      vertex -10.55 0 0
      vertex -10.5175 0.827743 0
    endloop
  endfacet
  facet normal 0 0 -1
    outer loop
      vertex -8.05 0 0
      vertex -9.40012 4.7896 0
      vertex -8.99535 5.51236 0
    endloop
  endfacet
  facet normal 0 0 -1
    outer loop
      vertex -8.05 0 0
      vertex -9.74693 4.03731 0
      vertex -9.40012 4.7896 0
    endloop
  endfacet
  facet normal 0 0 -1
    outer loop
      vertex -8.05 0 0
      vertex -10.0336 3.26013 0
      vertex -9.74693 4.03731 0
    endloop
  endfacet
  facet normal 0 0 -1
    outer loop
      vertex -8.05 0 0
      vertex -10.2585 2.46285 0
      vertex -10.0336 3.26013 0
    endloop
  endfacet
  facet normal 0 0 -1
    outer loop
      vertex -8.05 0 0
      vertex -10.4201 1.65038 0
      vertex -10.2585 2.46285 0
    endloop
  endfacet
  facet normal 0 0 -1
    outer loop
      vertex -8.05 0 0
      vertex -10.5175 0.827743 0
      vertex -10.4201 1.65038 0
    endloop
  endfacet
  facet normal 0 0 -1
    outer loop
      vertex -7.82758 -1.87923 0
      vertex -10.55 0 0
      vertex -7.95089 -1.2593 0
    endloop
  endfacet
  facet normal 0 0 -1
    outer loop
      vertex -7.95089 -1.2593 0
      vertex -10.55 0 0
      vertex -8.02518 -0.631596 0
    endloop
  endfacet
  facet normal 0 0 -1
    outer loop
      vertex -5.22806 6.12127 0
      vertex -6.85168 8.02228 0
      vertex -6.81652 8.05 0
    endloop
  endfacet
  facet normal 0 0 -1
    outer loop
      vertex -8.53513 6.20113 0
      vertex -6.51259 4.73167 0
      vertex -6.86375 4.20611 0
    endloop
  endfacet
  facet normal 0 0 -1
    outer loop
      vertex -8.53513 6.20113 0
      vertex -6.86375 4.20611 0
      vertex -7.1726 3.65462 0
    endloop
  endfacet
  facet normal 0 0 -1
    outer loop
      vertex -8.53513 6.20113 0
      vertex -7.1726 3.65462 0
      vertex -7.43723 3.0806 0
    endloop
  endfacet
  facet normal 0 0 -1
    outer loop
      vertex -6.12127 5.22806 0
      vertex -7.45998 7.45998 0
      vertex -6.85168 8.02228 0
    endloop
  endfacet
  facet normal 0 0 -1
    outer loop
      vertex -8.53513 6.20113 0
      vertex -7.43723 3.0806 0
      vertex -7.656 2.48759 0
    endloop
  endfacet
  facet normal 0 0 -1
    outer loop
      vertex -8.53513 6.20113 0
      vertex -7.656 2.48759 0
      vertex -7.82758 1.87923 0
    endloop
  endfacet
  facet normal 0 0 -1
    outer loop
      vertex -8.53513 6.20113 0
      vertex -7.82758 1.87923 0
      vertex -7.95089 1.2593 0
    endloop
  endfacet
  facet normal 0 0 -1
    outer loop
      vertex -6.12127 5.22806 0
      vertex -8.02228 6.85168 0
      vertex -7.45998 7.45998 0
    endloop
  endfacet
  facet normal 0 0 -1
    outer loop
      vertex -8.53513 6.20113 0
      vertex -7.95089 1.2593 0
      vertex -8.02518 0.631596 0
    endloop
  endfacet
  facet normal 0 0 -1
    outer loop
      vertex -8.53513 6.20113 0
      vertex -8.02518 0.631596 0
      vertex -8.05 0 0
    endloop
  endfacet
  facet normal 0 0 -1
    outer loop
      vertex -6.51259 4.73167 0
      vertex -8.53513 6.20113 0
      vertex -8.02228 6.85168 0
    endloop
  endfacet
  facet normal 0.993069 0.117537 0
    outer loop
      vertex 10.5175 0.827743 22
      vertex 10.4201 1.65038 0
      vertex 10.4201 1.65038 22
    endloop
  endfacet
  facet normal 0.993069 0.117537 0
    outer loop
      vertex 10.4201 1.65038 0
      vertex 10.5175 0.827743 22
      vertex 10.5175 0.827743 0
    endloop
  endfacet
  facet normal 0.908144 0.418659 0
    outer loop
      vertex 9.74693 4.03731 22
      vertex 9.40012 4.7896 0
      vertex 9.40012 4.7896 22
    endloop
  endfacet
  facet normal 0.908144 0.418659 0
    outer loop
      vertex 9.40012 4.7896 0
      vertex 9.74693 4.03731 22
      vertex 9.74693 4.03731 0
    endloop
  endfacet
  facet normal 0.619091 0.785319 -0
    outer loop
      vertex 6.85168 8.02228 0
      vertex 6.81652 8.05 22
      vertex 6.85168 8.02228 22
    endloop
  endfacet
  facet normal 0.619091 0.785319 0
    outer loop
      vertex 6.81652 8.05 22
      vertex 6.85168 8.02228 0
      vertex 6.81652 8.05 0
    endloop
  endfacet
  facet normal 0 0 1
    outer loop
      vertex 52.5 13.05 22
      vertex 6.81652 8.05 22
      vertex 52.5 8.05 22
    endloop
  endfacet
  facet normal 0 0 1
    outer loop
      vertex 8.02228 6.85168 22
      vertex 6.12127 5.22806 22
      vertex 6.51259 4.73167 22
    endloop
  endfacet
  facet normal 0 0 1
    outer loop
      vertex 6.85168 8.02228 22
      vertex 5.69221 5.69221 22
      vertex 6.12127 5.22806 22
    endloop
  endfacet
  facet normal 0 0 1
    outer loop
      vertex 6.85168 8.02228 22
      vertex 5.22806 6.12127 22
      vertex 5.69221 5.69221 22
    endloop
  endfacet
  facet normal 0 0 1
    outer loop
      vertex 6.81652 8.05 22
      vertex 4.73167 6.51259 22
      vertex 5.22806 6.12127 22
    endloop
  endfacet
  facet normal 0 0 1
    outer loop
      vertex 6.81652 8.05 22
      vertex 4.20611 6.86375 22
      vertex 4.73167 6.51259 22
    endloop
  endfacet
  facet normal 0 0 1
    outer loop
      vertex 6.81652 8.05 22
      vertex 3.65462 7.1726 22
      vertex 4.20611 6.86375 22
    endloop
  endfacet
  facet normal 0 0 1
    outer loop
      vertex 6.81652 8.05 22
      vertex 3.0806 7.43723 22
      vertex 3.65462 7.1726 22
    endloop
  endfacet
  facet normal 0 0 1
    outer loop
      vertex 6.81652 8.05 22
      vertex 2.48759 7.656 22
      vertex 3.0806 7.43723 22
    endloop
  endfacet
  facet normal 0 0 1
    outer loop
      vertex 0 8.05 22
      vertex 6.81652 8.05 22
      vertex 52.5 13.05 22
    endloop
  endfacet
  facet normal 0 0 1
    outer loop
      vertex 6.81652 8.05 22
      vertex 1.87923 7.82758 22
      vertex 2.48759 7.656 22
    endloop
  endfacet
  facet normal 0 0 1
    outer loop
      vertex 6.81652 8.05 22
      vertex 1.2593 7.95089 22
      vertex 1.87923 7.82758 22
    endloop
  endfacet
  facet normal 0 0 1
    outer loop
      vertex 6.81652 8.05 22
      vertex 0.631596 8.02518 22
      vertex 1.2593 7.95089 22
    endloop
  endfacet
  facet normal 0 0 1
    outer loop
      vertex 6.81652 8.05 22
      vertex 0 8.05 22
      vertex 0.631596 8.02518 22
    endloop
  endfacet
  facet normal -0 0 1
    outer loop
      vertex -52.5 13.05 22
      vertex 0 8.05 22
      vertex 52.5 13.05 22
    endloop
  endfacet
  facet normal -0 0 1
    outer loop
      vertex -7.45998 7.45998 22
      vertex -5.69221 5.69221 22
      vertex -6.85168 8.02228 22
    endloop
  endfacet
  facet normal 0 0 1
    outer loop
      vertex -5.22806 6.12127 22
      vertex -6.85168 8.02228 22
      vertex -5.69221 5.69221 22
    endloop
  endfacet
  facet normal -0 0 1
    outer loop
      vertex -6.85168 8.02228 22
      vertex -5.22806 6.12127 22
      vertex -6.81652 8.05 22
    endloop
  endfacet
  facet normal 0 0 1
    outer loop
      vertex -4.73167 6.51259 22
      vertex -6.81652 8.05 22
      vertex -5.22806 6.12127 22
    endloop
  endfacet
  facet normal 0 0 1
    outer loop
      vertex -4.20611 6.86375 22
      vertex -6.81652 8.05 22
      vertex -4.73167 6.51259 22
    endloop
  endfacet
  facet normal 0 0 1
    outer loop
      vertex -3.65462 7.1726 22
      vertex -6.81652 8.05 22
      vertex -4.20611 6.86375 22
    endloop
  endfacet
  facet normal 0 0 1
    outer loop
      vertex -3.0806 7.43723 22
      vertex -6.81652 8.05 22
      vertex -3.65462 7.1726 22
    endloop
  endfacet
  facet normal 0 0 1
    outer loop
      vertex -2.48759 7.656 22
      vertex -6.81652 8.05 22
      vertex -3.0806 7.43723 22
    endloop
  endfacet
  facet normal 0 0 1
    outer loop
      vertex -1.87923 7.82758 22
      vertex -6.81652 8.05 22
      vertex -2.48759 7.656 22
    endloop
  endfacet
  facet normal 0 0 1
    outer loop
      vertex -1.2593 7.95089 22
      vertex -6.81652 8.05 22
      vertex -1.87923 7.82758 22
    endloop
  endfacet
  facet normal 0 0 1
    outer loop
      vertex -0.631596 8.02518 22
      vertex -6.81652 8.05 22
      vertex -1.2593 7.95089 22
    endloop
  endfacet
  facet normal 0 -0 1
    outer loop
      vertex -6.81652 8.05 22
      vertex 0 8.05 22
      vertex -52.5 13.05 22
    endloop
  endfacet
  facet normal 0 0 1
    outer loop
      vertex 0 8.05 22
      vertex -6.81652 8.05 22
      vertex -0.631596 8.02518 22
    endloop
  endfacet
  facet normal 0 0 1
    outer loop
      vertex -6.81652 8.05 22
      vertex -52.5 13.05 22
      vertex -52.5 8.05 22
    endloop
  endfacet
  facet normal 0 0 1
    outer loop
      vertex 10.5175 0.827743 22
      vertex 8.02518 0.631596 22
      vertex 8.05 0 22
    endloop
  endfacet
  facet normal 0 0 1
    outer loop
      vertex 6.51259 4.73167 22
      vertex 8.53513 6.20113 22
      vertex 8.02228 6.85168 22
    endloop
  endfacet
  facet normal 0 0 1
    outer loop
      vertex 8.99535 5.51236 22
      vertex 7.95089 1.2593 22
      vertex 8.02518 0.631596 22
    endloop
  endfacet
  facet normal 0 0 1
    outer loop
      vertex 8.99535 5.51236 22
      vertex 7.82758 1.87923 22
      vertex 7.95089 1.2593 22
    endloop
  endfacet
  facet normal 0 0 1
    outer loop
      vertex 8.99535 5.51236 22
      vertex 7.656 2.48759 22
      vertex 7.82758 1.87923 22
    endloop
  endfacet
  facet normal 0 0 1
    outer loop
      vertex 6.12127 5.22806 22
      vertex 8.02228 6.85168 22
      vertex 7.45998 7.45998 22
    endloop
  endfacet
  facet normal 0 0 1
    outer loop
      vertex 8.99535 5.51236 22
      vertex 7.43723 3.0806 22
      vertex 7.656 2.48759 22
    endloop
  endfacet
  facet normal 0 0 1
    outer loop
      vertex 8.99535 5.51236 22
      vertex 7.1726 3.65462 22
      vertex 7.43723 3.0806 22
    endloop
  endfacet
  facet normal 0 0 1
    outer loop
      vertex 8.99535 5.51236 22
      vertex 6.86375 4.20611 22
      vertex 7.1726 3.65462 22
    endloop
  endfacet
  facet normal 0 0 1
    outer loop
      vertex 6.12127 5.22806 22
      vertex 7.45998 7.45998 22
      vertex 6.85168 8.02228 22
    endloop
  endfacet
  facet normal 0 0 1
    outer loop
      vertex 5.22806 6.12127 22
      vertex 6.85168 8.02228 22
      vertex 6.81652 8.05 22
    endloop
  endfacet
  facet normal 0 0 1
    outer loop
      vertex 8.53513 6.20113 22
      vertex 6.51259 4.73167 22
      vertex 6.86375 4.20611 22
    endloop
  endfacet
  facet normal 0 0 1
    outer loop
      vertex 7.656 -2.48759 22
      vertex 11 0 22
      vertex 10.55 0 22
    endloop
  endfacet
  facet normal 0 0 1
    outer loop
      vertex 8.05 0 22
      vertex 10.55 0 22
      vertex 10.5175 0.827743 22
    endloop
  endfacet
  facet normal 0 0 1
    outer loop
      vertex 8.02518 0.631596 22
      vertex 10.5175 0.827743 22
      vertex 10.4201 1.65038 22
    endloop
  endfacet
  facet normal 0 0 1
    outer loop
      vertex 8.02518 0.631596 22
      vertex 10.4201 1.65038 22
      vertex 10.2585 2.46285 22
    endloop
  endfacet
  facet normal 0 0 1
    outer loop
      vertex 8.02518 0.631596 22
      vertex 10.2585 2.46285 22
      vertex 10.0336 3.26013 22
    endloop
  endfacet
  facet normal 0 0 1
    outer loop
      vertex 8.02518 0.631596 22
      vertex 10.0336 3.26013 22
      vertex 9.74693 4.03731 22
    endloop
  endfacet
  facet normal 0 0 1
    outer loop
      vertex 8.02518 0.631596 22
      vertex 9.74693 4.03731 22
      vertex 9.40012 4.7896 22
    endloop
  endfacet
  facet normal 0 0 1
    outer loop
      vertex 8.02518 0.631596 22
      vertex 9.40012 4.7896 22
      vertex 8.99535 5.51236 22
    endloop
  endfacet
  facet normal 0 0 1
    outer loop
      vertex 6.86375 4.20611 22
      vertex 8.99535 5.51236 22
      vertex 8.53513 6.20113 22
    endloop
  endfacet
  facet normal 0 0 1
    outer loop
      vertex 10.55 0 22
      vertex 8.05 0 22
      vertex 8.02518 -0.631596 22
    endloop
  endfacet
  facet normal 0 0 1
    outer loop
      vertex 10.55 0 22
      vertex 8.02518 -0.631596 22
      vertex 7.95089 -1.2593 22
    endloop
  endfacet
  facet normal 0 0 1
    outer loop
      vertex 10.55 0 22
      vertex 7.95089 -1.2593 22
      vertex 7.82758 -1.87923 22
    endloop
  endfacet
  facet normal 0 0 1
    outer loop
      vertex 10.55 0 22
      vertex 7.82758 -1.87923 22
      vertex 7.656 -2.48759 22
    endloop
  endfacet
  facet normal 0 0 1
    outer loop
      vertex 11 0 22
      vertex 7.656 -2.48759 22
      vertex 7.43723 -3.0806 22
    endloop
  endfacet
  facet normal 0 0 1
    outer loop
      vertex 11 0 22
      vertex 7.43723 -3.0806 22
      vertex 7.1726 -3.65462 22
    endloop
  endfacet
  facet normal 0 0 1
    outer loop
      vertex 11 0 22
      vertex 7.1726 -3.65462 22
      vertex 11 -18.05 22
    endloop
  endfacet
  facet normal -0 0 1
    outer loop
      vertex 6.86375 -4.20611 22
      vertex 11 -18.05 22
      vertex 7.1726 -3.65462 22
    endloop
  endfacet
  facet normal -0 0 1
    outer loop
      vertex 6.51259 -4.73167 22
      vertex 11 -18.05 22
      vertex 6.86375 -4.20611 22
    endloop
  endfacet
  facet normal -0 0 1
    outer loop
      vertex 6.5 -4.74764 22
      vertex 11 -18.05 22
      vertex 6.51259 -4.73167 22
    endloop
  endfacet
  facet normal 0 0 1
    outer loop
      vertex 11 -18.05 22
      vertex 6.5 -4.74764 22
      vertex 6.5 -18.05 22
    endloop
  endfacet
  facet normal 0 0 1
    outer loop
      vertex -5.69221 5.69221 22
      vertex -7.45998 7.45998 22
      vertex -6.12127 5.22806 22
    endloop
  endfacet
  facet normal -0 0 1
    outer loop
      vertex -8.02228 6.85168 22
      vertex -6.12127 5.22806 22
      vertex -7.45998 7.45998 22
    endloop
  endfacet
  facet normal 0 0 1
    outer loop
      vertex -6.12127 5.22806 22
      vertex -8.02228 6.85168 22
      vertex -6.51259 4.73167 22
    endloop
  endfacet
  facet normal -0 0 1
    outer loop
      vertex -8.53513 6.20113 22
      vertex -6.51259 4.73167 22
      vertex -8.02228 6.85168 22
    endloop
  endfacet
  facet normal 0 0 1
    outer loop
      vertex -6.51259 4.73167 22
      vertex -8.53513 6.20113 22
      vertex -6.86375 4.20611 22
    endloop
  endfacet
  facet normal -0 0 1
    outer loop
      vertex -8.99535 5.51236 22
      vertex -6.86375 4.20611 22
      vertex -8.53513 6.20113 22
    endloop
  endfacet
  facet normal 0 0 1
    outer loop
      vertex -6.86375 4.20611 22
      vertex -8.99535 5.51236 22
      vertex -7.1726 3.65462 22
    endloop
  endfacet
  facet normal -0 0 1
    outer loop
      vertex -9.40012 4.7896 22
      vertex -7.1726 3.65462 22
      vertex -8.99535 5.51236 22
    endloop
  endfacet
  facet normal 0 0 1
    outer loop
      vertex -7.1726 3.65462 22
      vertex -9.40012 4.7896 22
      vertex -7.43723 3.0806 22
    endloop
  endfacet
  facet normal -0 0 1
    outer loop
      vertex -9.74693 4.03731 22
      vertex -7.43723 3.0806 22
      vertex -9.40012 4.7896 22
    endloop
  endfacet
  facet normal 0 0 1
    outer loop
      vertex -7.43723 3.0806 22
      vertex -9.74693 4.03731 22
      vertex -7.656 2.48759 22
    endloop
  endfacet
  facet normal -0 0 1
    outer loop
      vertex -10.0336 3.26013 22
      vertex -7.656 2.48759 22
      vertex -9.74693 4.03731 22
    endloop
  endfacet
  facet normal 0 0 1
    outer loop
      vertex -11 -18.05 22
      vertex -6.5 -4.74764 22
      vertex -6.51259 -4.73167 22
    endloop
  endfacet
  facet normal 0 0 1
    outer loop
      vertex -11 -18.05 22
      vertex -6.51259 -4.73167 22
      vertex -6.86375 -4.20611 22
    endloop
  endfacet
  facet normal 0 0 1
    outer loop
      vertex -11 -18.05 22
      vertex -6.86375 -4.20611 22
      vertex -7.1726 -3.65462 22
    endloop
  endfacet
  facet normal 0 0 1
    outer loop
      vertex -11 0 22
      vertex -7.1726 -3.65462 22
      vertex -7.43723 -3.0806 22
    endloop
  endfacet
  facet normal 0 0 1
    outer loop
      vertex -11 0 22
      vertex -7.43723 -3.0806 22
      vertex -7.656 -2.48759 22
    endloop
  endfacet
  facet normal 0 0 1
    outer loop
      vertex -10.55 0 22
      vertex -7.656 -2.48759 22
      vertex -7.82758 -1.87923 22
    endloop
  endfacet
  facet normal 0 0 1
    outer loop
      vertex -10.55 0 22
      vertex -7.82758 -1.87923 22
      vertex -7.95089 -1.2593 22
    endloop
  endfacet
  facet normal 0 0 1
    outer loop
      vertex -10.55 0 22
      vertex -7.95089 -1.2593 22
      vertex -8.02518 -0.631596 22
    endloop
  endfacet
  facet normal 0 0 1
    outer loop
      vertex -7.656 2.48759 22
      vertex -10.0336 3.26013 22
      vertex -7.82758 1.87923 22
    endloop
  endfacet
  facet normal -0 0 1
    outer loop
      vertex -10.2585 2.46285 22
      vertex -7.82758 1.87923 22
      vertex -10.0336 3.26013 22
    endloop
  endfacet
  facet normal 0 0 1
    outer loop
      vertex -7.82758 1.87923 22
      vertex -10.2585 2.46285 22
      vertex -7.95089 1.2593 22
    endloop
  endfacet
  facet normal -0 0 1
    outer loop
      vertex -10.4201 1.65038 22
      vertex -7.95089 1.2593 22
      vertex -10.2585 2.46285 22
    endloop
  endfacet
  facet normal 0 0 1
    outer loop
      vertex -7.95089 1.2593 22
      vertex -10.4201 1.65038 22
      vertex -8.02518 0.631596 22
    endloop
  endfacet
  facet normal -0 0 1
    outer loop
      vertex -10.5175 0.827743 22
      vertex -8.02518 0.631596 22
      vertex -10.4201 1.65038 22
    endloop
  endfacet
  facet normal 0 0 1
    outer loop
      vertex -8.02518 0.631596 22
      vertex -10.5175 0.827743 22
      vertex -8.05 0 22
    endloop
  endfacet
  facet normal 0 0 1
    outer loop
      vertex -10.55 0 22
      vertex -8.05 0 22
      vertex -10.5175 0.827743 22
    endloop
  endfacet
  facet normal 0 0 1
    outer loop
      vertex -8.05 0 22
      vertex -10.55 0 22
      vertex -8.02518 -0.631596 22
    endloop
  endfacet
  facet normal 0 0 1
    outer loop
      vertex -7.656 -2.48759 22
      vertex -10.55 0 22
      vertex -11 0 22
    endloop
  endfacet
  facet normal 0 0 1
    outer loop
      vertex -7.1726 -3.65462 22
      vertex -11 0 22
      vertex -11 -18.05 22
    endloop
  endfacet
  facet normal 0 0 1
    outer loop
      vertex -6.5 -4.74764 22
      vertex -11 -18.05 22
      vertex -6.5 -18.05 22
    endloop
  endfacet
  facet normal -0.980785 0.195091 0
    outer loop
      vertex -10.4201 1.65038 0
      vertex -10.2585 2.46285 22
      vertex -10.2585 2.46285 0
    endloop
  endfacet
  facet normal -0.980785 0.195091 0
    outer loop
      vertex -10.2585 2.46285 22
      vertex -10.4201 1.65038 0
      vertex -10.4201 1.65038 22
    endloop
  endfacet
  facet normal -0.831469 0.555571 0
    outer loop
      vertex -8.99535 5.51236 0
      vertex -8.53513 6.20113 22
      vertex -8.53513 6.20113 0
    endloop
  endfacet
  facet normal -0.831469 0.555571 0
    outer loop
      vertex -8.53513 6.20113 22
      vertex -8.99535 5.51236 0
      vertex -8.99535 5.51236 22
    endloop
  endfacet
  facet normal 0.938191 0.346117 0
    outer loop
      vertex 10.0336 3.26013 22
      vertex 9.74693 4.03731 0
      vertex 9.74693 4.03731 22
    endloop
  endfacet
  facet normal 0.938191 0.346117 0
    outer loop
      vertex 9.74693 4.03731 0
      vertex 10.0336 3.26013 22
      vertex 10.0336 3.26013 0
    endloop
  endfacet
  facet normal -1 0 0
    outer loop
      vertex -11 0 0
      vertex -11 -9.10641 10.4993
      vertex -11 0 22
    endloop
  endfacet
  facet normal -1 0 0
    outer loop
      vertex -11 0 0
      vertex -11 -9.54088 9.59715
      vertex -11 -9.10641 10.4993
    endloop
  endfacet
  facet normal -1 0 0
    outer loop
      vertex -11 0 0
      vertex -11 -10.3238 8.97282
      vertex -11 -9.54088 9.59715
    endloop
  endfacet
  facet normal -1 0 0
    outer loop
      vertex -11 0 0
      vertex -11 -11.2593 8.75928
      vertex -11 -10.3238 8.97282
    endloop
  endfacet
  facet normal -1 0 0
    outer loop
      vertex -11 -18.05 0
      vertex -11 -11.2593 8.75928
      vertex -11 0 0
    endloop
  endfacet
  facet normal -1 0 0
    outer loop
      vertex -11 -11.2593 8.75928
      vertex -11 -18.05 0
      vertex -11 -11.3 8.75
    endloop
  endfacet
  facet normal -1 -0 0
    outer loop
      vertex -11 -11.3 8.75
      vertex -11 -18.05 0
      vertex -11 -11.3407 8.75928
    endloop
  endfacet
  facet normal -1 -0 0
    outer loop
      vertex -11 -13.4936 10.4993
      vertex -11 -18.05 0
      vertex -11 -13.4936 11.5007
    endloop
  endfacet
  facet normal -1 -0 0
    outer loop
      vertex -11 -13.0591 9.59715
      vertex -11 -18.05 0
      vertex -11 -13.4936 10.4993
    endloop
  endfacet
  facet normal -1 -0 0
    outer loop
      vertex -11 -12.2762 8.97282
      vertex -11 -18.05 0
      vertex -11 -13.0591 9.59715
    endloop
  endfacet
  facet normal -1 -0 0
    outer loop
      vertex -11 -11.3407 8.75928
      vertex -11 -18.05 0
      vertex -11 -12.2762 8.97282
    endloop
  endfacet
  facet normal -1 0 0
    outer loop
      vertex -11 -9.10641 11.5007
      vertex -11 0 22
      vertex -11 -9.10641 10.4993
    endloop
  endfacet
  facet normal -1 0 0
    outer loop
      vertex -11 -9.54088 12.4029
      vertex -11 0 22
      vertex -11 -9.10641 11.5007
    endloop
  endfacet
  facet normal -1 0 0
    outer loop
      vertex -11 -10.3238 13.0272
      vertex -11 0 22
      vertex -11 -9.54088 12.4029
    endloop
  endfacet
  facet normal -1 0 0
    outer loop
      vertex -11 -10.3644 13.0365
      vertex -11 0 22
      vertex -11 -10.3238 13.0272
    endloop
  endfacet
  facet normal -1 0 0
    outer loop
      vertex -11 -11.3 13.25
      vertex -11 0 22
      vertex -11 -10.3644 13.0365
    endloop
  endfacet
  facet normal -1 0 0
    outer loop
      vertex -11 -18.05 22
      vertex -11 -11.3 13.25
      vertex -11 -12.2356 13.0365
    endloop
  endfacet
  facet normal -1 0 0
    outer loop
      vertex -11 -18.05 22
      vertex -11 -12.2356 13.0365
      vertex -11 -12.2762 13.0272
    endloop
  endfacet
  facet normal -1 0 0
    outer loop
      vertex -11 -11.3 13.25
      vertex -11 -18.05 22
      vertex -11 0 22
    endloop
  endfacet
  facet normal -1 0 0
    outer loop
      vertex -11 -13.0591 12.4029
      vertex -11 -18.05 22
      vertex -11 -12.2762 13.0272
    endloop
  endfacet
  facet normal -1 0 0
    outer loop
      vertex -11 -13.4936 11.5007
      vertex -11 -18.05 22
      vertex -11 -13.0591 12.4029
    endloop
  endfacet
  facet normal -1 0 0
    outer loop
      vertex -11 -18.05 22
      vertex -11 -13.4936 11.5007
      vertex -11 -18.05 0
    endloop
  endfacet
  facet normal 1 0 0
    outer loop
      vertex 11 0 22
      vertex 11 -9.10641 11.5007
      vertex 11 0 0
    endloop
  endfacet
  facet normal 1 0 0
    outer loop
      vertex 11 0 22
      vertex 11 -9.54088 12.4029
      vertex 11 -9.10641 11.5007
    endloop
  endfacet
  facet normal 1 0 0
    outer loop
      vertex 11 0 22
      vertex 11 -10.3238 13.0272
      vertex 11 -9.54088 12.4029
    endloop
  endfacet
  facet normal 1 0 0
    outer loop
      vertex 11 0 22
      vertex 11 -11.2593 13.2407
      vertex 11 -10.3238 13.0272
    endloop
  endfacet
  facet normal 1 -0 0
    outer loop
      vertex 11 -18.05 22
      vertex 11 -11.2593 13.2407
      vertex 11 0 22
    endloop
  endfacet
  facet normal 1 0 0
    outer loop
      vertex 11 -11.2593 13.2407
      vertex 11 -18.05 22
      vertex 11 -11.3 13.25
    endloop
  endfacet
  facet normal 1 0 0
    outer loop
      vertex 11 -11.3 13.25
      vertex 11 -18.05 22
      vertex 11 -11.3407 13.2407
    endloop
  endfacet
  facet normal 1 0 0
    outer loop
      vertex 11 -13.4936 11.5007
      vertex 11 -18.05 22
      vertex 11 -13.4936 10.4993
    endloop
  endfacet
  facet normal 1 0 0
    outer loop
      vertex 11 -13.0591 12.4029
      vertex 11 -18.05 22
      vertex 11 -13.4936 11.5007
    endloop
  endfacet
  facet normal 1 0 0
    outer loop
      vertex 11 -12.2762 13.0272
      vertex 11 -18.05 22
      vertex 11 -13.0591 12.4029
    endloop
  endfacet
  facet normal 1 0 0
    outer loop
      vertex 11 -11.3407 13.2407
      vertex 11 -18.05 22
      vertex 11 -12.2762 13.0272
    endloop
  endfacet
  facet normal 1 -0 0
    outer loop
      vertex 11 -9.10641 10.4993
      vertex 11 0 0
      vertex 11 -9.10641 11.5007
    endloop
  endfacet
  facet normal 1 -0 0
    outer loop
      vertex 11 -9.54088 9.59715
      vertex 11 0 0
      vertex 11 -9.10641 10.4993
    endloop
  endfacet
  facet normal 1 -0 0
    outer loop
      vertex 11 -10.3238 8.97282
      vertex 11 0 0
      vertex 11 -9.54088 9.59715
    endloop
  endfacet
  facet normal 1 -0 0
    outer loop
      vertex 11 -10.3644 8.96354
      vertex 11 0 0
      vertex 11 -10.3238 8.97282
    endloop
  endfacet
  facet normal 1 -0 0
    outer loop
      vertex 11 -11.3 8.75
      vertex 11 0 0
      vertex 11 -10.3644 8.96354
    endloop
  endfacet
  facet normal 1 0 0
    outer loop
      vertex 11 -18.05 0
      vertex 11 -11.3 8.75
      vertex 11 -12.2356 8.96354
    endloop
  endfacet
  facet normal 1 0 0
    outer loop
      vertex 11 -18.05 0
      vertex 11 -12.2356 8.96354
      vertex 11 -12.2762 8.97282
    endloop
  endfacet
  facet normal 1 0 0
    outer loop
      vertex 11 -11.3 8.75
      vertex 11 -18.05 0
      vertex 11 0 0
    endloop
  endfacet
  facet normal 1 0 0
    outer loop
      vertex 11 -13.0591 9.59715
      vertex 11 -18.05 0
      vertex 11 -12.2762 8.97282
    endloop
  endfacet
  facet normal 1 0 0
    outer loop
      vertex 11 -13.4936 10.4993
      vertex 11 -18.05 0
      vertex 11 -13.0591 9.59715
    endloop
  endfacet
  facet normal 1 0 0
    outer loop
      vertex 11 -18.05 0
      vertex 11 -13.4936 10.4993
      vertex 11 -18.05 22
    endloop
  endfacet
  facet normal 0 -1 0
    outer loop
      vertex -11 -18.05 0
      vertex -6.5 -18.05 22
      vertex -11 -18.05 22
    endloop
  endfacet
  facet normal 0 -1 -0
    outer loop
      vertex -6.5 -18.05 22
      vertex -11 -18.05 0
      vertex -6.5 -18.05 0
    endloop
  endfacet
  facet normal 0 -1 0
    outer loop
      vertex 6.5 -18.05 0
      vertex 11 -18.05 22
      vertex 6.5 -18.05 22
    endloop
  endfacet
  facet normal 0 -1 -0
    outer loop
      vertex 11 -18.05 22
      vertex 6.5 -18.05 0
      vertex 11 -18.05 0
    endloop
  endfacet
  facet normal 0 1 -0
    outer loop
      vertex 11 0 0
      vertex 10.55 0 22
      vertex 11 0 22
    endloop
  endfacet
  facet normal 0 1 0
    outer loop
      vertex 10.55 0 22
      vertex 11 0 0
      vertex 10.55 0 0
    endloop
  endfacet
  facet normal 0 1 -0
    outer loop
      vertex -10.55 0 0
      vertex -11 0 22
      vertex -10.55 0 22
    endloop
  endfacet
  facet normal 0 1 0
    outer loop
      vertex -11 0 22
      vertex -10.55 0 0
      vertex -11 0 0
    endloop
  endfacet
  facet normal -0.999229 -0.03926 0
    outer loop
      vertex 8.05 0 0
      vertex 8.02518 0.631596 22
      vertex 8.02518 0.631596 0
    endloop
  endfacet
  facet normal -0.999229 -0.03926 0
    outer loop
      vertex 8.02518 0.631596 22
      vertex 8.05 0 0
      vertex 8.05 0 22
    endloop
  endfacet
  facet normal 0.999229 -0.03926 0
    outer loop
      vertex -8.05 0 22
      vertex -8.02518 0.631596 0
      vertex -8.02518 0.631596 22
    endloop
  endfacet
  facet normal 0.999229 -0.03926 0
    outer loop
      vertex -8.02518 0.631596 0
      vertex -8.05 0 22
      vertex -8.05 0 0
    endloop
  endfacet
  facet normal -0.03926 -0.999229 0
    outer loop
      vertex 0 8.05 0
      vertex 0.631596 8.02518 22
      vertex 0 8.05 22
    endloop
  endfacet
  facet normal -0.03926 -0.999229 -0
    outer loop
      vertex 0.631596 8.02518 22
      vertex 0 8.05 0
      vertex 0.631596 8.02518 0
    endloop
  endfacet
  facet normal -0.734323 -0.6788 0
    outer loop
      vertex 6.12127 5.22806 0
      vertex 5.69221 5.69221 22
      vertex 5.69221 5.69221 0
    endloop
  endfacet
  facet normal -0.734323 -0.6788 0
    outer loop
      vertex 5.69221 5.69221 22
      vertex 6.12127 5.22806 0
      vertex 6.12127 5.22806 22
    endloop
  endfacet
  facet normal 0.6788 -0.734323 0
    outer loop
      vertex -5.69221 5.69221 0
      vertex -5.22806 6.12127 22
      vertex -5.69221 5.69221 22
    endloop
  endfacet
  facet normal 0.6788 -0.734323 0
    outer loop
      vertex -5.22806 6.12127 22
      vertex -5.69221 5.69221 0
      vertex -5.22806 6.12127 0
    endloop
  endfacet
  facet normal 0.346117 -0.938191 0
    outer loop
      vertex -3.0806 7.43723 0
      vertex -2.48759 7.656 22
      vertex -3.0806 7.43723 22
    endloop
  endfacet
  facet normal 0.346117 -0.938191 0
    outer loop
      vertex -2.48759 7.656 22
      vertex -3.0806 7.43723 0
      vertex -2.48759 7.656 0
    endloop
  endfacet
  facet normal -0.938191 -0.346117 0
    outer loop
      vertex 7.656 2.48759 0
      vertex 7.43723 3.0806 22
      vertex 7.43723 3.0806 0
    endloop
  endfacet
  facet normal -0.938191 -0.346117 0
    outer loop
      vertex 7.43723 3.0806 22
      vertex 7.656 2.48759 0
      vertex 7.656 2.48759 22
    endloop
  endfacet
  facet normal -0.41866 -0.908143 0
    outer loop
      vertex 3.0806 7.43723 0
      vertex 3.65462 7.1726 22
      vertex 3.0806 7.43723 22
    endloop
  endfacet
  facet normal -0.41866 -0.908143 -0
    outer loop
      vertex 3.65462 7.1726 22
      vertex 3.0806 7.43723 0
      vertex 3.65462 7.1726 0
    endloop
  endfacet
  facet normal -0.555571 -0.831469 0
    outer loop
      vertex 4.20611 6.86375 0
      vertex 4.73167 6.51259 22
      vertex 4.20611 6.86375 22
    endloop
  endfacet
  facet normal -0.555571 -0.831469 -0
    outer loop
      vertex 4.73167 6.51259 22
      vertex 4.20611 6.86375 0
      vertex 4.73167 6.51259 0
    endloop
  endfacet
  facet normal 0.908143 -0.41866 0
    outer loop
      vertex -7.43723 3.0806 22
      vertex -7.1726 3.65462 0
      vertex -7.1726 3.65462 22
    endloop
  endfacet
  facet normal 0.908143 -0.41866 0
    outer loop
      vertex -7.1726 3.65462 0
      vertex -7.43723 3.0806 22
      vertex -7.43723 3.0806 0
    endloop
  endfacet
  facet normal 0.785317 -0.619094 0
    outer loop
      vertex -6.51259 4.73167 22
      vertex -6.12127 5.22806 0
      vertex -6.12127 5.22806 22
    endloop
  endfacet
  facet normal 0.785317 -0.619094 0
    outer loop
      vertex -6.12127 5.22806 0
      vertex -6.51259 4.73167 22
      vertex -6.51259 4.73167 0
    endloop
  endfacet
  facet normal 0.19509 -0.980785 0
    outer loop
      vertex -1.87923 7.82758 0
      vertex -1.2593 7.95089 22
      vertex -1.87923 7.82758 22
    endloop
  endfacet
  facet normal 0.19509 -0.980785 0
    outer loop
      vertex -1.2593 7.95089 22
      vertex -1.87923 7.82758 0
      vertex -1.2593 7.95089 0
    endloop
  endfacet
  facet normal 0.785315 0.619096 0
    outer loop
      vertex -6.5 -4.74764 22
      vertex -6.51259 -4.73167 0
      vertex -6.51259 -4.73167 22
    endloop
  endfacet
  facet normal 0.785315 0.619096 0
    outer loop
      vertex -6.51259 -4.73167 0
      vertex -6.5 -4.74764 22
      vertex -6.5 -4.74764 0
    endloop
  endfacet
  facet normal -0.980785 -0.19509 0
    outer loop
      vertex 7.95089 1.2593 0
      vertex 7.82758 1.87923 22
      vertex 7.82758 1.87923 0
    endloop
  endfacet
  facet normal -0.980785 -0.19509 0
    outer loop
      vertex 7.82758 1.87923 22
      vertex 7.95089 1.2593 0
      vertex 7.95089 1.2593 22
    endloop
  endfacet
  facet normal -0.993069 -0.117537 0
    outer loop
      vertex 8.02518 0.631596 0
      vertex 7.95089 1.2593 22
      vertex 7.95089 1.2593 0
    endloop
  endfacet
  facet normal -0.993069 -0.117537 0
    outer loop
      vertex 7.95089 1.2593 22
      vertex 8.02518 0.631596 0
      vertex 8.02518 0.631596 22
    endloop
  endfacet
  facet normal -0.962455 -0.27144 0
    outer loop
      vertex 7.82758 1.87923 0
      vertex 7.656 2.48759 22
      vertex 7.656 2.48759 0
    endloop
  endfacet
  facet normal -0.962455 -0.27144 0
    outer loop
      vertex 7.656 2.48759 22
      vertex 7.82758 1.87923 0
      vertex 7.82758 1.87923 22
    endloop
  endfacet
  facet normal -0.872497 -0.48862 0
    outer loop
      vertex 7.1726 3.65462 0
      vertex 6.86375 4.20611 22
      vertex 6.86375 4.20611 0
    endloop
  endfacet
  facet normal -0.872497 -0.48862 0
    outer loop
      vertex 6.86375 4.20611 22
      vertex 7.1726 3.65462 0
      vertex 7.1726 3.65462 22
    endloop
  endfacet
  facet normal -0.831469 -0.555571 0
    outer loop
      vertex 6.86375 4.20611 0
      vertex 6.51259 4.73167 22
      vertex 6.51259 4.73167 0
    endloop
  endfacet
  facet normal -0.831469 -0.555571 0
    outer loop
      vertex 6.51259 4.73167 22
      vertex 6.86375 4.20611 0
      vertex 6.86375 4.20611 22
    endloop
  endfacet
  facet normal -0.908143 -0.41866 0
    outer loop
      vertex 7.43723 3.0806 0
      vertex 7.1726 3.65462 22
      vertex 7.1726 3.65462 0
    endloop
  endfacet
  facet normal -0.908143 -0.41866 0
    outer loop
      vertex 7.1726 3.65462 22
      vertex 7.43723 3.0806 0
      vertex 7.43723 3.0806 22
    endloop
  endfacet
  facet normal -0.27144 -0.962455 0
    outer loop
      vertex 1.87923 7.82758 0
      vertex 2.48759 7.656 22
      vertex 1.87923 7.82758 22
    endloop
  endfacet
  facet normal -0.27144 -0.962455 -0
    outer loop
      vertex 2.48759 7.656 22
      vertex 1.87923 7.82758 0
      vertex 2.48759 7.656 0
    endloop
  endfacet
  facet normal -0.346117 -0.938191 0
    outer loop
      vertex 2.48759 7.656 0
      vertex 3.0806 7.43723 22
      vertex 2.48759 7.656 22
    endloop
  endfacet
  facet normal -0.346117 -0.938191 -0
    outer loop
      vertex 3.0806 7.43723 22
      vertex 2.48759 7.656 0
      vertex 3.0806 7.43723 0
    endloop
  endfacet
  facet normal -0.19509 -0.980785 0
    outer loop
      vertex 1.2593 7.95089 0
      vertex 1.87923 7.82758 22
      vertex 1.2593 7.95089 22
    endloop
  endfacet
  facet normal -0.19509 -0.980785 -0
    outer loop
      vertex 1.87923 7.82758 22
      vertex 1.2593 7.95089 0
      vertex 1.87923 7.82758 0
    endloop
  endfacet
  facet normal -0.48862 -0.872497 0
    outer loop
      vertex 3.65462 7.1726 0
      vertex 4.20611 6.86375 22
      vertex 3.65462 7.1726 22
    endloop
  endfacet
  facet normal -0.48862 -0.872497 -0
    outer loop
      vertex 4.20611 6.86375 22
      vertex 3.65462 7.1726 0
      vertex 4.20611 6.86375 0
    endloop
  endfacet
  facet normal -0.619094 -0.785317 0
    outer loop
      vertex 4.73167 6.51259 0
      vertex 5.22806 6.12127 22
      vertex 4.73167 6.51259 22
    endloop
  endfacet
  facet normal -0.619094 -0.785317 -0
    outer loop
      vertex 5.22806 6.12127 22
      vertex 4.73167 6.51259 0
      vertex 5.22806 6.12127 0
    endloop
  endfacet
  facet normal 0.962455 -0.27144 0
    outer loop
      vertex -7.82758 1.87923 22
      vertex -7.656 2.48759 0
      vertex -7.656 2.48759 22
    endloop
  endfacet
  facet normal 0.962455 -0.27144 0
    outer loop
      vertex -7.656 2.48759 0
      vertex -7.82758 1.87923 22
      vertex -7.82758 1.87923 0
    endloop
  endfacet
  facet normal 0.831469 -0.555571 0
    outer loop
      vertex -6.86375 4.20611 22
      vertex -6.51259 4.73167 0
      vertex -6.51259 4.73167 22
    endloop
  endfacet
  facet normal 0.831469 -0.555571 0
    outer loop
      vertex -6.51259 4.73167 0
      vertex -6.86375 4.20611 22
      vertex -6.86375 4.20611 0
    endloop
  endfacet
  facet normal 0.872497 -0.48862 0
    outer loop
      vertex -7.1726 3.65462 22
      vertex -6.86375 4.20611 0
      vertex -6.86375 4.20611 22
    endloop
  endfacet
  facet normal 0.872497 -0.48862 0
    outer loop
      vertex -6.86375 4.20611 0
      vertex -7.1726 3.65462 22
      vertex -7.1726 3.65462 0
    endloop
  endfacet
  facet normal 0.938191 -0.346117 0
    outer loop
      vertex -7.656 2.48759 22
      vertex -7.43723 3.0806 0
      vertex -7.43723 3.0806 22
    endloop
  endfacet
  facet normal 0.938191 -0.346117 0
    outer loop
      vertex -7.43723 3.0806 0
      vertex -7.656 2.48759 22
      vertex -7.656 2.48759 0
    endloop
  endfacet
  facet normal 0.980785 -0.19509 0
    outer loop
      vertex -7.95089 1.2593 22
      vertex -7.82758 1.87923 0
      vertex -7.82758 1.87923 22
    endloop
  endfacet
  facet normal 0.980785 -0.19509 0
    outer loop
      vertex -7.82758 1.87923 0
      vertex -7.95089 1.2593 22
      vertex -7.95089 1.2593 0
    endloop
  endfacet
  facet normal 0.48862 -0.872497 0
    outer loop
      vertex -4.20611 6.86375 0
      vertex -3.65462 7.1726 22
      vertex -4.20611 6.86375 22
    endloop
  endfacet
  facet normal 0.48862 -0.872497 0
    outer loop
      vertex -3.65462 7.1726 22
      vertex -4.20611 6.86375 0
      vertex -3.65462 7.1726 0
    endloop
  endfacet
  facet normal 0.41866 -0.908143 0
    outer loop
      vertex -3.65462 7.1726 0
      vertex -3.0806 7.43723 22
      vertex -3.65462 7.1726 22
    endloop
  endfacet
  facet normal 0.41866 -0.908143 0
    outer loop
      vertex -3.0806 7.43723 22
      vertex -3.65462 7.1726 0
      vertex -3.0806 7.43723 0
    endloop
  endfacet
  facet normal 0.555571 -0.831469 0
    outer loop
      vertex -4.73167 6.51259 0
      vertex -4.20611 6.86375 22
      vertex -4.73167 6.51259 22
    endloop
  endfacet
  facet normal 0.555571 -0.831469 0
    outer loop
      vertex -4.20611 6.86375 22
      vertex -4.73167 6.51259 0
      vertex -4.20611 6.86375 0
    endloop
  endfacet
  facet normal 0.27144 -0.962455 0
    outer loop
      vertex -2.48759 7.656 0
      vertex -1.87923 7.82758 22
      vertex -2.48759 7.656 22
    endloop
  endfacet
  facet normal 0.27144 -0.962455 0
    outer loop
      vertex -1.87923 7.82758 22
      vertex -2.48759 7.656 0
      vertex -1.87923 7.82758 0
    endloop
  endfacet
  facet normal 0.117537 -0.993069 0
    outer loop
      vertex -1.2593 7.95089 0
      vertex -0.631596 8.02518 22
      vertex -1.2593 7.95089 22
    endloop
  endfacet
  facet normal 0.117537 -0.993069 0
    outer loop
      vertex -0.631596 8.02518 22
      vertex -1.2593 7.95089 0
      vertex -0.631596 8.02518 0
    endloop
  endfacet
  facet normal 0.872497 0.48862 0
    outer loop
      vertex -6.86375 -4.20611 22
      vertex -7.1726 -3.65462 0
      vertex -7.1726 -3.65462 22
    endloop
  endfacet
  facet normal 0.872497 0.48862 0
    outer loop
      vertex -7.1726 -3.65462 0
      vertex -6.86375 -4.20611 22
      vertex -6.86375 -4.20611 0
    endloop
  endfacet
  facet normal 0.908143 0.41866 0
    outer loop
      vertex -7.1726 -3.65462 22
      vertex -7.43723 -3.0806 0
      vertex -7.43723 -3.0806 22
    endloop
  endfacet
  facet normal 0.908143 0.41866 0
    outer loop
      vertex -7.43723 -3.0806 0
      vertex -7.1726 -3.65462 22
      vertex -7.1726 -3.65462 0
    endloop
  endfacet
  facet normal 0.831469 0.555571 0
    outer loop
      vertex -6.51259 -4.73167 22
      vertex -6.86375 -4.20611 0
      vertex -6.86375 -4.20611 22
    endloop
  endfacet
  facet normal 0.831469 0.555571 0
    outer loop
      vertex -6.86375 -4.20611 0
      vertex -6.51259 -4.73167 22
      vertex -6.51259 -4.73167 0
    endloop
  endfacet
  facet normal 0.962455 0.27144 0
    outer loop
      vertex -7.656 -2.48759 22
      vertex -7.82758 -1.87923 0
      vertex -7.82758 -1.87923 22
    endloop
  endfacet
  facet normal 0.962455 0.27144 0
    outer loop
      vertex -7.82758 -1.87923 0
      vertex -7.656 -2.48759 22
      vertex -7.656 -2.48759 0
    endloop
  endfacet
  facet normal 0.938191 0.346117 0
    outer loop
      vertex -7.43723 -3.0806 22
      vertex -7.656 -2.48759 0
      vertex -7.656 -2.48759 22
    endloop
  endfacet
  facet normal 0.938191 0.346117 0
    outer loop
      vertex -7.656 -2.48759 0
      vertex -7.43723 -3.0806 22
      vertex -7.43723 -3.0806 0
    endloop
  endfacet
  facet normal -0.785317 -0.619094 0
    outer loop
      vertex 6.51259 4.73167 0
      vertex 6.12127 5.22806 22
      vertex 6.12127 5.22806 0
    endloop
  endfacet
  facet normal -0.785317 -0.619094 0
    outer loop
      vertex 6.12127 5.22806 22
      vertex 6.51259 4.73167 0
      vertex 6.51259 4.73167 22
    endloop
  endfacet
  facet normal -0.117537 -0.993069 0
    outer loop
      vertex 0.631596 8.02518 0
      vertex 1.2593 7.95089 22
      vertex 0.631596 8.02518 22
    endloop
  endfacet
  facet normal -0.117537 -0.993069 -0
    outer loop
      vertex 1.2593 7.95089 22
      vertex 0.631596 8.02518 0
      vertex 1.2593 7.95089 0
    endloop
  endfacet
  facet normal -0.6788 -0.734323 0
    outer loop
      vertex 5.22806 6.12127 0
      vertex 5.69221 5.69221 22
      vertex 5.22806 6.12127 22
    endloop
  endfacet
  facet normal -0.6788 -0.734323 -0
    outer loop
      vertex 5.69221 5.69221 22
      vertex 5.22806 6.12127 0
      vertex 5.69221 5.69221 0
    endloop
  endfacet
  facet normal 0.993069 -0.117537 0
    outer loop
      vertex -8.02518 0.631596 22
      vertex -7.95089 1.2593 0
      vertex -7.95089 1.2593 22
    endloop
  endfacet
  facet normal 0.993069 -0.117537 0
    outer loop
      vertex -7.95089 1.2593 0
      vertex -8.02518 0.631596 22
      vertex -8.02518 0.631596 0
    endloop
  endfacet
  facet normal 0.03926 -0.999229 0
    outer loop
      vertex -0.631596 8.02518 0
      vertex 0 8.05 22
      vertex -0.631596 8.02518 22
    endloop
  endfacet
  facet normal 0.03926 -0.999229 0
    outer loop
      vertex 0 8.05 22
      vertex -0.631596 8.02518 0
      vertex 0 8.05 0
    endloop
  endfacet
  facet normal -0.999229 0.03926 0
    outer loop
      vertex 8.02518 -0.631596 0
      vertex 8.05 0 22
      vertex 8.05 0 0
    endloop
  endfacet
  facet normal -0.999229 0.03926 0
    outer loop
      vertex 8.05 0 22
      vertex 8.02518 -0.631596 0
      vertex 8.02518 -0.631596 22
    endloop
  endfacet
  facet normal -0.831469 0.555571 0
    outer loop
      vertex 6.51259 -4.73167 0
      vertex 6.86375 -4.20611 22
      vertex 6.86375 -4.20611 0
    endloop
  endfacet
  facet normal -0.831469 0.555571 0
    outer loop
      vertex 6.86375 -4.20611 22
      vertex 6.51259 -4.73167 0
      vertex 6.51259 -4.73167 22
    endloop
  endfacet
  facet normal -0.785315 0.619096 0
    outer loop
      vertex 6.5 -4.74764 0
      vertex 6.51259 -4.73167 22
      vertex 6.51259 -4.73167 0
    endloop
  endfacet
  facet normal -0.785315 0.619096 0
    outer loop
      vertex 6.51259 -4.73167 22
      vertex 6.5 -4.74764 0
      vertex 6.5 -4.74764 22
    endloop
  endfacet
  facet normal -0.872497 0.48862 0
    outer loop
      vertex 6.86375 -4.20611 0
      vertex 7.1726 -3.65462 22
      vertex 7.1726 -3.65462 0
    endloop
  endfacet
  facet normal -0.872497 0.48862 0
    outer loop
      vertex 7.1726 -3.65462 22
      vertex 6.86375 -4.20611 0
      vertex 6.86375 -4.20611 22
    endloop
  endfacet
  facet normal -0.938191 0.346117 0
    outer loop
      vertex 7.43723 -3.0806 0
      vertex 7.656 -2.48759 22
      vertex 7.656 -2.48759 0
    endloop
  endfacet
  facet normal -0.938191 0.346117 0
    outer loop
      vertex 7.656 -2.48759 22
      vertex 7.43723 -3.0806 0
      vertex 7.43723 -3.0806 22
    endloop
  endfacet
  facet normal -0.980785 0.19509 0
    outer loop
      vertex 7.82758 -1.87923 0
      vertex 7.95089 -1.2593 22
      vertex 7.95089 -1.2593 0
    endloop
  endfacet
  facet normal -0.980785 0.19509 0
    outer loop
      vertex 7.95089 -1.2593 22
      vertex 7.82758 -1.87923 0
      vertex 7.82758 -1.87923 22
    endloop
  endfacet
  facet normal -0.962455 0.27144 0
    outer loop
      vertex 7.656 -2.48759 0
      vertex 7.82758 -1.87923 22
      vertex 7.82758 -1.87923 0
    endloop
  endfacet
  facet normal -0.962455 0.27144 0
    outer loop
      vertex 7.82758 -1.87923 22
      vertex 7.656 -2.48759 0
      vertex 7.656 -2.48759 22
    endloop
  endfacet
  facet normal -0.993069 0.117537 0
    outer loop
      vertex 7.95089 -1.2593 0
      vertex 8.02518 -0.631596 22
      vertex 8.02518 -0.631596 0
    endloop
  endfacet
  facet normal -0.993069 0.117537 0
    outer loop
      vertex 8.02518 -0.631596 22
      vertex 7.95089 -1.2593 0
      vertex 7.95089 -1.2593 22
    endloop
  endfacet
  facet normal 0.980785 0.19509 0
    outer loop
      vertex -7.82758 -1.87923 22
      vertex -7.95089 -1.2593 0
      vertex -7.95089 -1.2593 22
    endloop
  endfacet
  facet normal 0.980785 0.19509 0
    outer loop
      vertex -7.95089 -1.2593 0
      vertex -7.82758 -1.87923 22
      vertex -7.82758 -1.87923 0
    endloop
  endfacet
  facet normal 0.999229 0.03926 0
    outer loop
      vertex -8.02518 -0.631596 22
      vertex -8.05 0 0
      vertex -8.05 0 22
    endloop
  endfacet
  facet normal 0.999229 0.03926 0
    outer loop
      vertex -8.05 0 0
      vertex -8.02518 -0.631596 22
      vertex -8.02518 -0.631596 0
    endloop
  endfacet
  facet normal 0.734323 -0.6788 0
    outer loop
      vertex -6.12127 5.22806 22
      vertex -5.69221 5.69221 0
      vertex -5.69221 5.69221 22
    endloop
  endfacet
  facet normal 0.734323 -0.6788 0
    outer loop
      vertex -5.69221 5.69221 0
      vertex -6.12127 5.22806 22
      vertex -6.12127 5.22806 0
    endloop
  endfacet
  facet normal 0.619094 -0.785317 0
    outer loop
      vertex -5.22806 6.12127 0
      vertex -4.73167 6.51259 22
      vertex -5.22806 6.12127 22
    endloop
  endfacet
  facet normal 0.619094 -0.785317 0
    outer loop
      vertex -4.73167 6.51259 22
      vertex -5.22806 6.12127 0
      vertex -4.73167 6.51259 0
    endloop
  endfacet
  facet normal -0.908143 0.41866 0
    outer loop
      vertex 7.1726 -3.65462 0
      vertex 7.43723 -3.0806 22
      vertex 7.43723 -3.0806 0
    endloop
  endfacet
  facet normal -0.908143 0.41866 0
    outer loop
      vertex 7.43723 -3.0806 22
      vertex 7.1726 -3.65462 0
      vertex 7.1726 -3.65462 22
    endloop
  endfacet
  facet normal 0.993069 0.117537 0
    outer loop
      vertex -7.95089 -1.2593 22
      vertex -8.02518 -0.631596 0
      vertex -8.02518 -0.631596 22
    endloop
  endfacet
  facet normal 0.993069 0.117537 0
    outer loop
      vertex -8.02518 -0.631596 0
      vertex -7.95089 -1.2593 22
      vertex -7.95089 -1.2593 0
    endloop
  endfacet
  facet normal 1 0 0
    outer loop
      vertex -6.5 -4.74764 22
      vertex -6.5 -9.10641 11.5007
      vertex -6.5 -4.74764 0
    endloop
  endfacet
  facet normal 1 0 0
    outer loop
      vertex -6.5 -4.74764 22
      vertex -6.5 -9.54088 12.4029
      vertex -6.5 -9.10641 11.5007
    endloop
  endfacet
  facet normal 1 0 0
    outer loop
      vertex -6.5 -4.74764 22
      vertex -6.5 -10.3238 13.0272
      vertex -6.5 -9.54088 12.4029
    endloop
  endfacet
  facet normal 1 0 0
    outer loop
      vertex -6.5 -4.74764 22
      vertex -6.5 -10.5475 13.0782
      vertex -6.5 -10.3238 13.0272
    endloop
  endfacet
  facet normal 1 0 0
    outer loop
      vertex -6.5 -4.74764 22
      vertex -6.5 -11.3 13.25
      vertex -6.5 -10.5475 13.0782
    endloop
  endfacet
  facet normal 1 -0 0
    outer loop
      vertex -6.5 -18.05 22
      vertex -6.5 -11.3 13.25
      vertex -6.5 -4.74764 22
    endloop
  endfacet
  facet normal 1 0 0
    outer loop
      vertex -6.5 -11.3 13.25
      vertex -6.5 -18.05 22
      vertex -6.5 -12.0525 13.0782
    endloop
  endfacet
  facet normal 1 0 0
    outer loop
      vertex -6.5 -12.0525 13.0782
      vertex -6.5 -18.05 22
      vertex -6.5 -12.2762 13.0272
    endloop
  endfacet
  facet normal 1 0 0
    outer loop
      vertex -6.5 -13.4936 11.5007
      vertex -6.5 -18.05 22
      vertex -6.5 -13.4936 10.4993
    endloop
  endfacet
  facet normal 1 0 0
    outer loop
      vertex -6.5 -13.0591 12.4029
      vertex -6.5 -18.05 22
      vertex -6.5 -13.4936 11.5007
    endloop
  endfacet
  facet normal 1 0 0
    outer loop
      vertex -6.5 -12.2762 13.0272
      vertex -6.5 -18.05 22
      vertex -6.5 -13.0591 12.4029
    endloop
  endfacet
  facet normal 1 -0 0
    outer loop
      vertex -6.5 -9.10641 10.4993
      vertex -6.5 -4.74764 0
      vertex -6.5 -9.10641 11.5007
    endloop
  endfacet
  facet normal 1 -0 0
    outer loop
      vertex -6.5 -9.54088 9.59715
      vertex -6.5 -4.74764 0
      vertex -6.5 -9.10641 10.4993
    endloop
  endfacet
  facet normal 1 -0 0
    outer loop
      vertex -6.5 -10.3238 8.97282
      vertex -6.5 -4.74764 0
      vertex -6.5 -9.54088 9.59715
    endloop
  endfacet
  facet normal 1 -0 0
    outer loop
      vertex -6.5 -11.0763 8.80106
      vertex -6.5 -4.74764 0
      vertex -6.5 -10.3238 8.97282
    endloop
  endfacet
  facet normal 1 -0 0
    outer loop
      vertex -6.5 -11.3 8.75
      vertex -6.5 -4.74764 0
      vertex -6.5 -11.0763 8.80106
    endloop
  endfacet
  facet normal 1 0 0
    outer loop
      vertex -6.5 -18.05 0
      vertex -6.5 -11.3 8.75
      vertex -6.5 -11.5237 8.80106
    endloop
  endfacet
  facet normal 1 0 0
    outer loop
      vertex -6.5 -18.05 0
      vertex -6.5 -11.5237 8.80106
      vertex -6.5 -12.2762 8.97282
    endloop
  endfacet
  facet normal 1 0 0
    outer loop
      vertex -6.5 -18.05 0
      vertex -6.5 -12.2762 8.97282
      vertex -6.5 -13.0591 9.59715
    endloop
  endfacet
  facet normal 1 0 0
    outer loop
      vertex -6.5 -11.3 8.75
      vertex -6.5 -18.05 0
      vertex -6.5 -4.74764 0
    endloop
  endfacet
  facet normal 1 0 0
    outer loop
      vertex -6.5 -13.4936 10.4993
      vertex -6.5 -18.05 0
      vertex -6.5 -13.0591 9.59715
    endloop
  endfacet
  facet normal 1 0 0
    outer loop
      vertex -6.5 -18.05 0
      vertex -6.5 -13.4936 10.4993
      vertex -6.5 -18.05 22
    endloop
  endfacet
  facet normal -1 0 0
    outer loop
      vertex 6.5 -4.74764 0
      vertex 6.5 -9.10641 10.4993
      vertex 6.5 -4.74764 22
    endloop
  endfacet
  facet normal -1 0 0
    outer loop
      vertex 6.5 -4.74764 0
      vertex 6.5 -9.54088 9.59715
      vertex 6.5 -9.10641 10.4993
    endloop
  endfacet
  facet normal -1 0 0
    outer loop
      vertex 6.5 -4.74764 0
      vertex 6.5 -10.3238 8.97282
      vertex 6.5 -9.54088 9.59715
    endloop
  endfacet
  facet normal -1 0 0
    outer loop
      vertex 6.5 -4.74764 0
      vertex 6.5 -10.5475 8.92176
      vertex 6.5 -10.3238 8.97282
    endloop
  endfacet
  facet normal -1 0 0
    outer loop
      vertex 6.5 -4.74764 0
      vertex 6.5 -11.3 8.75
      vertex 6.5 -10.5475 8.92176
    endloop
  endfacet
  facet normal -1 0 0
    outer loop
      vertex 6.5 -18.05 0
      vertex 6.5 -11.3 8.75
      vertex 6.5 -4.74764 0
    endloop
  endfacet
  facet normal -1 -0 0
    outer loop
      vertex 6.5 -11.3 8.75
      vertex 6.5 -18.05 0
      vertex 6.5 -12.0525 8.92176
    endloop
  endfacet
  facet normal -1 -0 0
    outer loop
      vertex 6.5 -12.0525 8.92176
      vertex 6.5 -18.05 0
      vertex 6.5 -12.2762 8.97282
    endloop
  endfacet
  facet normal -1 -0 0
    outer loop
      vertex 6.5 -13.4936 10.4993
      vertex 6.5 -18.05 0
      vertex 6.5 -13.4936 11.5007
    endloop
  endfacet
  facet normal -1 -0 0
    outer loop
      vertex 6.5 -13.0591 9.59715
      vertex 6.5 -18.05 0
      vertex 6.5 -13.4936 10.4993
    endloop
  endfacet
  facet normal -1 -0 0
    outer loop
      vertex 6.5 -12.2762 8.97282
      vertex 6.5 -18.05 0
      vertex 6.5 -13.0591 9.59715
    endloop
  endfacet
  facet normal -1 0 0
    outer loop
      vertex 6.5 -9.10641 11.5007
      vertex 6.5 -4.74764 22
      vertex 6.5 -9.10641 10.4993
    endloop
  endfacet
  facet normal -1 0 0
    outer loop
      vertex 6.5 -9.54088 12.4029
      vertex 6.5 -4.74764 22
      vertex 6.5 -9.10641 11.5007
    endloop
  endfacet
  facet normal -1 0 0
    outer loop
      vertex 6.5 -10.3238 13.0272
      vertex 6.5 -4.74764 22
      vertex 6.5 -9.54088 12.4029
    endloop
  endfacet
  facet normal -1 0 0
    outer loop
      vertex 6.5 -11.0763 13.1989
      vertex 6.5 -4.74764 22
      vertex 6.5 -10.3238 13.0272
    endloop
  endfacet
  facet normal -1 0 0
    outer loop
      vertex 6.5 -11.3 13.25
      vertex 6.5 -4.74764 22
      vertex 6.5 -11.0763 13.1989
    endloop
  endfacet
  facet normal -1 0 0
    outer loop
      vertex 6.5 -18.05 22
      vertex 6.5 -11.3 13.25
      vertex 6.5 -11.5237 13.1989
    endloop
  endfacet
  facet normal -1 0 0
    outer loop
      vertex 6.5 -18.05 22
      vertex 6.5 -11.5237 13.1989
      vertex 6.5 -12.2762 13.0272
    endloop
  endfacet
  facet normal -1 0 0
    outer loop
      vertex 6.5 -18.05 22
      vertex 6.5 -12.2762 13.0272
      vertex 6.5 -13.0591 12.4029
    endloop
  endfacet
  facet normal -1 0 0
    outer loop
      vertex 6.5 -11.3 13.25
      vertex 6.5 -18.05 22
      vertex 6.5 -4.74764 22
    endloop
  endfacet
  facet normal -1 0 0
    outer loop
      vertex 6.5 -13.4936 11.5007
      vertex 6.5 -18.05 22
      vertex 6.5 -13.0591 12.4029
    endloop
  endfacet
  facet normal -1 0 0
    outer loop
      vertex 6.5 -18.05 22
      vertex 6.5 -13.4936 11.5007
      vertex 6.5 -18.05 0
    endloop
  endfacet
  facet normal 0 -0.222522 0.974928
    outer loop
      vertex -11 -10.3238 8.97282
      vertex -6.5 -11.0763 8.80106
      vertex -6.5 -10.3238 8.97282
    endloop
  endfacet
  facet normal 8.91464e-08 -0.222521 0.974928
    outer loop
      vertex -6.5 -11.0763 8.80106
      vertex -11 -10.3238 8.97282
      vertex -11 -11.2593 8.75928
    endloop
  endfacet
  facet normal 0 -0.22252 0.974928
    outer loop
      vertex 6.5 -10.3238 8.97282
      vertex 11 -10.3644 8.96354
      vertex 11 -10.3238 8.97282
    endloop
  endfacet
  facet normal 6.93943e-09 -0.222519 0.974928
    outer loop
      vertex 11 -10.3644 8.96354
      vertex 6.5 -10.3238 8.97282
      vertex 6.5 -10.5475 8.92176
    endloop
  endfacet
  facet normal 6.93943e-09 -0.222519 0.974928
    outer loop
      vertex -11 -11.2593 8.75928
      vertex -6.5 -11.3 8.75
      vertex -6.5 -11.0763 8.80106
    endloop
  endfacet
  facet normal 0 -0.22252 0.974928
    outer loop
      vertex -6.5 -11.3 8.75
      vertex -11 -11.2593 8.75928
      vertex -11 -11.3 8.75
    endloop
  endfacet
  facet normal 4.87218e-08 -0.22252 0.974928
    outer loop
      vertex 6.5 -10.5475 8.92176
      vertex 11 -11.3 8.75
      vertex 11 -10.3644 8.96354
    endloop
  endfacet
  facet normal 0 -0.222521 0.974928
    outer loop
      vertex 11 -11.3 8.75
      vertex 6.5 -10.5475 8.92176
      vertex 6.5 -11.3 8.75
    endloop
  endfacet
  facet normal 0 -0.222521 -0.974928
    outer loop
      vertex -11 -11.3 13.25
      vertex -6.5 -10.5475 13.0782
      vertex -6.5 -11.3 13.25
    endloop
  endfacet
  facet normal -4.87218e-08 -0.22252 -0.974928
    outer loop
      vertex -6.5 -10.5475 13.0782
      vertex -11 -11.3 13.25
      vertex -11 -10.3644 13.0365
    endloop
  endfacet
  facet normal 0 -0.22252 -0.974928
    outer loop
      vertex 6.5 -11.3 13.25
      vertex 11 -11.2593 13.2407
      vertex 11 -11.3 13.25
    endloop
  endfacet
  facet normal -6.93943e-09 -0.222519 -0.974928
    outer loop
      vertex 11 -11.2593 13.2407
      vertex 6.5 -11.3 13.25
      vertex 6.5 -11.0763 13.1989
    endloop
  endfacet
  facet normal 0 0.22252 -0.974928
    outer loop
      vertex -11 -12.2356 13.0365
      vertex -6.5 -12.2762 13.0272
      vertex -11 -12.2762 13.0272
    endloop
  endfacet
  facet normal -6.93943e-09 0.222519 -0.974928
    outer loop
      vertex -6.5 -12.2762 13.0272
      vertex -11 -12.2356 13.0365
      vertex -6.5 -12.0525 13.0782
    endloop
  endfacet
  facet normal 0 0.222522 -0.974928
    outer loop
      vertex 6.5 -11.5237 13.1989
      vertex 11 -12.2762 13.0272
      vertex 6.5 -12.2762 13.0272
    endloop
  endfacet
  facet normal -8.91464e-08 0.222521 -0.974928
    outer loop
      vertex 11 -12.2762 13.0272
      vertex 6.5 -11.5237 13.1989
      vertex 11 -11.3407 13.2407
    endloop
  endfacet
  facet normal 0 -0.62349 0.781831
    outer loop
      vertex -11 -9.54088 9.59715
      vertex -6.5 -10.3238 8.97282
      vertex -6.5 -9.54088 9.59715
    endloop
  endfacet
  facet normal 0 -0.62349 0.781831
    outer loop
      vertex -6.5 -10.3238 8.97282
      vertex -11 -9.54088 9.59715
      vertex -11 -10.3238 8.97282
    endloop
  endfacet
  facet normal 0 -0.62349 0.781831
    outer loop
      vertex 6.5 -9.54088 9.59715
      vertex 11 -10.3238 8.97282
      vertex 11 -9.54088 9.59715
    endloop
  endfacet
  facet normal 0 -0.62349 0.781831
    outer loop
      vertex 11 -10.3238 8.97282
      vertex 6.5 -9.54088 9.59715
      vertex 6.5 -10.3238 8.97282
    endloop
  endfacet
  facet normal -4.87218e-08 0.22252 -0.974928
    outer loop
      vertex -11 -11.3 13.25
      vertex -6.5 -12.0525 13.0782
      vertex -11 -12.2356 13.0365
    endloop
  endfacet
  facet normal 0 0.222521 -0.974928
    outer loop
      vertex -6.5 -12.0525 13.0782
      vertex -11 -11.3 13.25
      vertex -6.5 -11.3 13.25
    endloop
  endfacet
  facet normal -6.93943e-09 0.222519 -0.974928
    outer loop
      vertex 6.5 -11.3 13.25
      vertex 11 -11.3407 13.2407
      vertex 6.5 -11.5237 13.1989
    endloop
  endfacet
  facet normal 0 0.22252 -0.974928
    outer loop
      vertex 11 -11.3407 13.2407
      vertex 6.5 -11.3 13.25
      vertex 11 -11.3 13.25
    endloop
  endfacet
  facet normal 0 -0.900969 -0.433883
    outer loop
      vertex -11 -9.10641 11.5007
      vertex -6.5 -9.54088 12.4029
      vertex -11 -9.54088 12.4029
    endloop
  endfacet
  facet normal 0 -0.900969 -0.433883
    outer loop
      vertex -6.5 -9.54088 12.4029
      vertex -11 -9.10641 11.5007
      vertex -6.5 -9.10641 11.5007
    endloop
  endfacet
  facet normal 0 -0.900969 -0.433883
    outer loop
      vertex 6.5 -9.10641 11.5007
      vertex 11 -9.54088 12.4029
      vertex 6.5 -9.54088 12.4029
    endloop
  endfacet
  facet normal 0 -0.900969 -0.433883
    outer loop
      vertex 11 -9.54088 12.4029
      vertex 6.5 -9.10641 11.5007
      vertex 11 -9.10641 11.5007
    endloop
  endfacet
  facet normal 0 -0.900969 0.433883
    outer loop
      vertex -11 -9.54088 9.59715
      vertex -6.5 -9.10641 10.4993
      vertex -11 -9.10641 10.4993
    endloop
  endfacet
  facet normal 0 -0.900969 0.433883
    outer loop
      vertex -6.5 -9.10641 10.4993
      vertex -11 -9.54088 9.59715
      vertex -6.5 -9.54088 9.59715
    endloop
  endfacet
  facet normal 0 -0.900969 0.433883
    outer loop
      vertex 6.5 -9.54088 9.59715
      vertex 11 -9.10641 10.4993
      vertex 6.5 -9.10641 10.4993
    endloop
  endfacet
  facet normal 0 -0.900969 0.433883
    outer loop
      vertex 11 -9.10641 10.4993
      vertex 6.5 -9.54088 9.59715
      vertex 11 -9.54088 9.59715
    endloop
  endfacet
  facet normal -6.93943e-09 -0.222519 -0.974928
    outer loop
      vertex -11 -10.3644 13.0365
      vertex -6.5 -10.3238 13.0272
      vertex -6.5 -10.5475 13.0782
    endloop
  endfacet
  facet normal -0 -0.22252 -0.974928
    outer loop
      vertex -6.5 -10.3238 13.0272
      vertex -11 -10.3644 13.0365
      vertex -11 -10.3238 13.0272
    endloop
  endfacet
  facet normal -8.91464e-08 -0.222521 -0.974928
    outer loop
      vertex 6.5 -11.0763 13.1989
      vertex 11 -10.3238 13.0272
      vertex 11 -11.2593 13.2407
    endloop
  endfacet
  facet normal -0 -0.222522 -0.974928
    outer loop
      vertex 11 -10.3238 13.0272
      vertex 6.5 -11.0763 13.1989
      vertex 6.5 -10.3238 13.0272
    endloop
  endfacet
  facet normal 0 -1 0
    outer loop
      vertex -11 -9.10641 10.4993
      vertex -6.5 -9.10641 11.5007
      vertex -11 -9.10641 11.5007
    endloop
  endfacet
  facet normal 0 -1 -0
    outer loop
      vertex -6.5 -9.10641 11.5007
      vertex -11 -9.10641 10.4993
      vertex -6.5 -9.10641 10.4993
    endloop
  endfacet
  facet normal 0 -1 0
    outer loop
      vertex 6.5 -9.10641 10.4993
      vertex 11 -9.10641 11.5007
      vertex 6.5 -9.10641 11.5007
    endloop
  endfacet
  facet normal 0 -1 -0
    outer loop
      vertex 11 -9.10641 11.5007
      vertex 6.5 -9.10641 10.4993
      vertex 11 -9.10641 10.4993
    endloop
  endfacet
  facet normal 0 1 -0
    outer loop
      vertex -6.5 -13.4936 10.4993
      vertex -11 -13.4936 11.5007
      vertex -6.5 -13.4936 11.5007
    endloop
  endfacet
  facet normal 0 1 0
    outer loop
      vertex -11 -13.4936 11.5007
      vertex -6.5 -13.4936 10.4993
      vertex -11 -13.4936 10.4993
    endloop
  endfacet
  facet normal 0 1 -0
    outer loop
      vertex 11 -13.4936 10.4993
      vertex 6.5 -13.4936 11.5007
      vertex 11 -13.4936 11.5007
    endloop
  endfacet
  facet normal 0 1 0
    outer loop
      vertex 6.5 -13.4936 11.5007
      vertex 11 -13.4936 10.4993
      vertex 6.5 -13.4936 10.4993
    endloop
  endfacet
  facet normal 0 0.22252 0.974928
    outer loop
      vertex -11 -11.3407 8.75928
      vertex -6.5 -11.3 8.75
      vertex -11 -11.3 8.75
    endloop
  endfacet
  facet normal 6.93943e-09 0.222519 0.974928
    outer loop
      vertex -6.5 -11.3 8.75
      vertex -11 -11.3407 8.75928
      vertex -6.5 -11.5237 8.80106
    endloop
  endfacet
  facet normal 0 0.222521 0.974928
    outer loop
      vertex 6.5 -12.0525 8.92176
      vertex 11 -11.3 8.75
      vertex 6.5 -11.3 8.75
    endloop
  endfacet
  facet normal 4.87218e-08 0.22252 0.974928
    outer loop
      vertex 11 -11.3 8.75
      vertex 6.5 -12.0525 8.92176
      vertex 11 -12.2356 8.96354
    endloop
  endfacet
  facet normal 0 -0.62349 -0.781831
    outer loop
      vertex -11 -10.3238 13.0272
      vertex -6.5 -9.54088 12.4029
      vertex -6.5 -10.3238 13.0272
    endloop
  endfacet
  facet normal -0 -0.62349 -0.781831
    outer loop
      vertex -6.5 -9.54088 12.4029
      vertex -11 -10.3238 13.0272
      vertex -11 -9.54088 12.4029
    endloop
  endfacet
  facet normal 0 -0.62349 -0.781831
    outer loop
      vertex 6.5 -10.3238 13.0272
      vertex 11 -9.54088 12.4029
      vertex 11 -10.3238 13.0272
    endloop
  endfacet
  facet normal -0 -0.62349 -0.781831
    outer loop
      vertex 11 -9.54088 12.4029
      vertex 6.5 -10.3238 13.0272
      vertex 6.5 -9.54088 12.4029
    endloop
  endfacet
  facet normal 0 0.900969 -0.433884
    outer loop
      vertex -6.5 -13.4936 11.5007
      vertex -11 -13.0591 12.4029
      vertex -6.5 -13.0591 12.4029
    endloop
  endfacet
  facet normal 0 0.900969 -0.433884
    outer loop
      vertex -11 -13.0591 12.4029
      vertex -6.5 -13.4936 11.5007
      vertex -11 -13.4936 11.5007
    endloop
  endfacet
  facet normal 0 0.900969 -0.433884
    outer loop
      vertex 11 -13.4936 11.5007
      vertex 6.5 -13.0591 12.4029
      vertex 11 -13.0591 12.4029
    endloop
  endfacet
  facet normal 0 0.900969 -0.433884
    outer loop
      vertex 6.5 -13.0591 12.4029
      vertex 11 -13.4936 11.5007
      vertex 6.5 -13.4936 11.5007
    endloop
  endfacet
  facet normal 0 0.62349 -0.781831
    outer loop
      vertex -11 -13.0591 12.4029
      vertex -6.5 -12.2762 13.0272
      vertex -6.5 -13.0591 12.4029
    endloop
  endfacet
  facet normal 0 0.62349 -0.781831
    outer loop
      vertex -6.5 -12.2762 13.0272
      vertex -11 -13.0591 12.4029
      vertex -11 -12.2762 13.0272
    endloop
  endfacet
  facet normal 0 0.62349 -0.781831
    outer loop
      vertex 6.5 -13.0591 12.4029
      vertex 11 -12.2762 13.0272
      vertex 11 -13.0591 12.4029
    endloop
  endfacet
  facet normal 0 0.62349 -0.781831
    outer loop
      vertex 11 -12.2762 13.0272
      vertex 6.5 -13.0591 12.4029
      vertex 6.5 -12.2762 13.0272
    endloop
  endfacet
  facet normal 0 0.900969 0.433884
    outer loop
      vertex -6.5 -13.0591 9.59715
      vertex -11 -13.4936 10.4993
      vertex -6.5 -13.4936 10.4993
    endloop
  endfacet
  facet normal 0 0.900969 0.433884
    outer loop
      vertex -11 -13.4936 10.4993
      vertex -6.5 -13.0591 9.59715
      vertex -11 -13.0591 9.59715
    endloop
  endfacet
  facet normal 0 0.900969 0.433884
    outer loop
      vertex 11 -13.0591 9.59715
      vertex 6.5 -13.4936 10.4993
      vertex 11 -13.4936 10.4993
    endloop
  endfacet
  facet normal 0 0.900969 0.433884
    outer loop
      vertex 6.5 -13.4936 10.4993
      vertex 11 -13.0591 9.59715
      vertex 6.5 -13.0591 9.59715
    endloop
  endfacet
  facet normal 8.91464e-08 0.222521 0.974928
    outer loop
      vertex -11 -12.2762 8.97282
      vertex -6.5 -11.5237 8.80106
      vertex -11 -11.3407 8.75928
    endloop
  endfacet
  facet normal 0 0.222522 0.974928
    outer loop
      vertex -6.5 -11.5237 8.80106
      vertex -11 -12.2762 8.97282
      vertex -6.5 -12.2762 8.97282
    endloop
  endfacet
  facet normal 6.93943e-09 0.222519 0.974928
    outer loop
      vertex 6.5 -12.2762 8.97282
      vertex 11 -12.2356 8.96354
      vertex 6.5 -12.0525 8.92176
    endloop
  endfacet
  facet normal 0 0.22252 0.974928
    outer loop
      vertex 11 -12.2356 8.96354
      vertex 6.5 -12.2762 8.97282
      vertex 11 -12.2762 8.97282
    endloop
  endfacet
  facet normal -0 0.62349 0.781831
    outer loop
      vertex -11 -12.2762 8.97282
      vertex -6.5 -13.0591 9.59715
      vertex -6.5 -12.2762 8.97282
    endloop
  endfacet
  facet normal 0 0.62349 0.781831
    outer loop
      vertex -6.5 -13.0591 9.59715
      vertex -11 -12.2762 8.97282
      vertex -11 -13.0591 9.59715
    endloop
  endfacet
  facet normal -0 0.62349 0.781831
    outer loop
      vertex 6.5 -12.2762 8.97282
      vertex 11 -13.0591 9.59715
      vertex 11 -12.2762 8.97282
    endloop
  endfacet
  facet normal 0 0.62349 0.781831
    outer loop
      vertex 11 -13.0591 9.59715
      vertex 6.5 -12.2762 8.97282
      vertex 6.5 -13.0591 9.59715
    endloop
  endfacet
  facet normal -1 0 0
    outer loop
      vertex -52.5 8.05 0
      vertex -52.5 13.05 22
      vertex -52.5 13.05 0
    endloop
  endfacet
  facet normal -1 -0 0
    outer loop
      vertex -52.5 13.05 22
      vertex -52.5 8.05 0
      vertex -52.5 8.05 22
    endloop
  endfacet
  facet normal 1 -0 0
    outer loop
      vertex 52.5 8.05 22
      vertex 52.5 13.05 0
      vertex 52.5 13.05 22
    endloop
  endfacet
  facet normal 1 0 0
    outer loop
      vertex 52.5 13.05 0
      vertex 52.5 8.05 22
      vertex 52.5 8.05 0
    endloop
  endfacet
  facet normal 0 -1 0
    outer loop
      vertex -52.5 8.05 0
      vertex -6.81652 8.05 22
      vertex -52.5 8.05 22
    endloop
  endfacet
  facet normal 0 -1 -0
    outer loop
      vertex -6.81652 8.05 22
      vertex -52.5 8.05 0
      vertex -6.81652 8.05 0
    endloop
  endfacet
  facet normal 0 -1 0
    outer loop
      vertex 6.81652 8.05 0
      vertex 52.5 8.05 22
      vertex 6.81652 8.05 22
    endloop
  endfacet
  facet normal 0 -1 -0
    outer loop
      vertex 52.5 8.05 22
      vertex 6.81652 8.05 0
      vertex 52.5 8.05 0
    endloop
  endfacet
  facet normal 0 1 -0
    outer loop
      vertex 52.5 13.05 0
      vertex -52.5 13.05 22
      vertex 52.5 13.05 22
    endloop
  endfacet
  facet normal 0 1 0
    outer loop
      vertex -52.5 13.05 22
      vertex 52.5 13.05 0
      vertex -52.5 13.05 0
    endloop
  endfacet
endsolid OpenSCAD_Model
